<mxfile host="65bd71144e">
    <diagram id="DooZZbuxd70B7n0P7aoI" name="Page-1">
        <mxGraphModel dx="733" dy="702" grid="0" gridSize="10" guides="1" tooltips="1" connect="1" arrows="1" fold="1" page="0" pageScale="1" pageWidth="850" pageHeight="1100" background="#ffffff" math="0" shadow="0">
            <root>
                <mxCell id="0"/>
                <mxCell id="1" parent="0"/>
                <mxCell id="2" value="Azure AD" style="shape=image;verticalLabelPosition=bottom;labelBackgroundColor=none;verticalAlign=top;aspect=fixed;imageAspect=0;image=data:image/svg+xml,PHN2ZyB4bWxucz0iaHR0cDovL3d3dy53My5vcmcvMjAwMC9zdmciIGlkPSJmZmQ2NWVmMC00NmYxLTQxMjMtYWE4Ni02YzIyNDMyOTJmNWYiIHdpZHRoPSIxOCIgaGVpZ2h0PSIxOCIgdmlld0JveD0iMCAwIDE4IDE4Ij48ZGVmcz48bGluZWFyR3JhZGllbnQgaWQ9ImFlMGM0ZTA4LTI0NDAtNDg4Yy1iYWUxLTY1MDljN2E0ZWYwNyIgeDE9IjEzLjI1IiB5MT0iMTIuODMiIHgyPSI4LjYyIiB5Mj0iNC4wNiIgZ3JhZGllbnRVbml0cz0idXNlclNwYWNlT25Vc2UiPjxzdG9wIG9mZnNldD0iMCIgc3RvcC1jb2xvcj0iIzE5ODhkOSIvPjxzdG9wIG9mZnNldD0iMC45IiBzdG9wLWNvbG9yPSIjNTRhZWYwIi8+PC9saW5lYXJHcmFkaWVudD48L2RlZnM+PGc+PHBvbHlnb24gcG9pbnRzPSIxLjAxIDEwLjAxIDguOTMgMTUuMTQgMTYuOTkgOS45OSAxOCAxMS4xNiA4LjkzIDE3LjAxIDAgMTEuMTcgMS4wMSAxMC4wMSIgZmlsbD0iIzUwZTZmZiIvPjxwb2x5Z29uIHBvaW50cz0iMS42MSA5LjM1IDguOTMgMC42MiAxNi40IDkuMzYgOC45MyAxNC4wOCAxLjYxIDkuMzUiIGZpbGw9IiNmZmYiLz48cG9seWdvbiBwb2ludHM9IjguOTMgMC42MiA4LjkzIDE0LjA4IDEuNjEgOS4zNSA4LjkzIDAuNjIiIGZpbGw9IiM1MGU2ZmYiLz48cG9seWdvbiBwb2ludHM9IjguOTMgMC42MiA4LjkzIDE0LjA4IDE2LjQgOS4zNiA4LjkzIDAuNjIiIGZpbGw9InVybCgjYWUwYzRlMDgtMjQ0MC00ODhjLWJhZTEtNjUwOWM3YTRlZjA3KSIvPjxwb2x5Z29uIHBvaW50cz0iOC45MyA3LjU3IDE2LjQgOS4zNiA4LjkzIDE0LjA4IDguOTMgNy41NyIgZmlsbD0iIzUzYjFlMCIvPjxwb2x5Z29uIHBvaW50cz0iOC45MyAxNC4wOCAxLjYxIDkuMzUgOC45MyA3LjU3IDguOTMgMTQuMDgiIGZpbGw9IiM5Y2ViZmYiLz48cG9seWdvbiBwb2ludHM9IjguOTMgMTcuMDEgMTggMTEuMTYgMTYuOTkgOS45OSA4LjkzIDE1LjE0IDguOTMgMTcuMDEiIGZpbGw9IiM1ZWEwZWYiLz48cGF0aCBkPSJNMTcuNDUsMTZhLjQ0LjQ0LDAsMCwwLC40NC0uNDR2MGEyLjUsMi41LDAsMCwwLTIuNDUtMi41Yy0xLjUzLDAtMi4zMi45NS0yLjQ3LDIuNWEuNDUuNDUsMCwwLDAsLjM5LjQ5aDQuMDlaIiBmaWxsPSIjNzczYWRjIi8+PHBhdGggZD0iTTE1LjQ0LDEzLjM4YTEuMzUsMS4zNSwwLDAsMS0uNzUtLjIybC43NCwxLjkzLjczLTEuOTJBMS4zOCwxLjM4LDAsMCwxLDE1LjQ0LDEzLjM4WiIgZmlsbD0iI2ZmZiIgb3BhY2l0eT0iMC44Ii8+PGNpcmNsZSBjeD0iMTUuNDQiIGN5PSIxMiIgcj0iMS4zOCIgZmlsbD0iIzc3M2FkYyIvPjxwYXRoIGQ9Ik0xNC42OCwxNy4zOGEuNjUuNjUsMCwwLDAsLjY2LS42NnYtLjA4Yy0uMjYtMi4wNS0xLjQzLTMuNzMtMy42Ny0zLjczUzguMjIsMTQuMzMsOCwxNi42NWEuNjUuNjUsMCwwLDAsLjU4LjcyaDYuMTFaIiBmaWxsPSIjYTY3YWY0Ii8+PHBhdGggZD0iTTExLjcsMTMuNGEyLDIsMCwwLDEtMS4xMS0uMzNMMTEuNjksMTZsMS4xLTIuODdBMiwyLDAsMCwxLDExLjcsMTMuNFoiIGZpbGw9IiNmZmYiIG9wYWNpdHk9IjAuOCIvPjxjaXJjbGUgY3g9IjExLjY5IiBjeT0iMTEuMzQiIHI9IjIuMDYiIGZpbGw9IiNhNjdhZjQiLz48L2c+PC9zdmc+;fontColor=#000000;fontFamily=Fira Sans Light;fontSource=https%3A%2F%2Ffonts.googleapis.com%2Fcss%3Ffamily%3DFira%2BSans%2BLight;fontSize=14;" parent="1" vertex="1">
                    <mxGeometry x="324.59000000000003" y="50" width="60" height="60" as="geometry"/>
                </mxCell>
                <mxCell id="13" style="edgeStyle=none;html=1;labelBackgroundColor=none;fontFamily=Fira Sans Light;fontSource=https%3A%2F%2Ffonts.googleapis.com%2Fcss%3Ffamily%3DFira%2BSans%2BLight;fontSize=14;fontColor=#000000;strokeColor=#000000;strokeWidth=2;" parent="1" source="3" target="2" edge="1">
                    <mxGeometry relative="1" as="geometry"/>
                </mxCell>
                <mxCell id="3" value="" style="shape=image;verticalLabelPosition=bottom;labelBackgroundColor=#ffffff;verticalAlign=top;aspect=fixed;imageAspect=0;image=data:image/png,iVBORw0KGgoAAAANSUhEUgAAAYoAAAB6CAYAAAChmxS9AAAAAXNSR0IArs4c6QAAAHhlWElmTU0AKgAAAAgABAEaAAUAAAABAAAAPgEbAAUAAAABAAAARgEoAAMAAAABAAIAAIdpAAQAAAABAAAATgAAAAAAAACQAAAAAQAAAJAAAAABAAOgAQADAAAAAQABAACgAgAEAAAAAQAAAYqgAwAEAAAAAQAAAHoAAAAARfmdkgAAAAlwSFlzAAAWJQAAFiUBSVIk8AAAQABJREFUeAHsvfeTXtd553nDGzvnRiegATRABAIUCQZRomVQlmVJtmRLM1SVd2ZtSy5bNeMq19ZWbdX+Zugf2K11jXcsWZasce1sjThVXkvWyJZtkYqMIEGCAAGiAXSjc879xnvvfr7nDXg7IQPdIu8B3r7pxOec86TznOdYVhhCCIQQCCEQQiCEQAiBEAIhBEIIhBAIIRBCIIRACIEQAiEEQgiEEAghEEIghEAIgRACIQRCCIQQCCEQQiCEQAiBEAIhBEIIhBAIIRBCIIRACIEQAiEEQgiEEAghEEIghEAIgRACIQRCCIQQCCEQQiCEQAiBEAIhBEIIhBAIIRBCIIRACIEQAiEEQgiEEAghEEIghEAIgRACIQRCCIQQCCEQQiCEQAiBEAIhBEIIhBAIIRBCIIRACIEQAiEEQgiEEAghEEIghEAIgRAC71sI2JYV8PtghQ9cgz9Y3Ru2NoRACIEyBAIQ/Fe/alun/iywLJvf3YTAfu47zztTra320nu1du3BpaB16mRw9PxXg1OnTvl3k/NOTBsSip3YK2GdQgiEELinEDh1KnDe6Pl5teNUu21Zb+XrX3k8dzcFPPcX52oysfQ+yE2Hb/mO7bgrtuvP5WOx4e//u+Nzd5P3Tkzr7MRKhXUKIRBCIITAvYTAuSMvxR030RZkvZ6pZLTxbvP2Iqla27I/FDjWp23b/Rz5fSrw7Q+7q7me574TuHeb/05LH0oUO61HwvqEEAghcE8hcPLUC5HarqqeiBV51PP9Tttxpjzbvxr1o/N5284F+SAbSQcr8x/60PKLz9r5Wyn8t//i1R4r5n4O/dXHAitoQ5Xl2bY9bPn+y4Hln7bdyEh61l344f92fPXu1Vy3UqP7Gydyf7MPcw8hEEIghMA2QYA1iee+ej6ab883oB467AX+b1qO/RgrFRknsIc825uwA3vcjnIf8S82nDlzgZrO30pt3YiT9yx/yQqcZQjEftLsYZH7qGXbvbblPkS+r9XW+q89d+r84POnrOyt5LmT44SEYif3Tli3EAIfGAiAviuXl42uw/ypfHvb0Eh3pCKWE612A6uNjA46bvRDTjRu5dMrj5HZVGAHg44fXATBV/nJIP/cn78xyMflo4tPZ06dsrdclA4SXjbIRSbJY4jfbn59tu20BIFfy7pFU2B58awVrMTaXO9zf/2zqe9++aPLlHFXbaGMbQuh6mnbQB8WHEIghIAgcPKFFyKt59sSq/ZstCrm2qtZL3Djdj5e25h5/otH75wbR6L4g795MT7rdzQFfuoJ2/K+QHG/ArbuYH0hDmEKLNtCKrAmuV7mGxIF6iPbnw78YDJiOwN5Pxj83lceR320Nnz2a69X2ZFojxXk+khz1PKt47Zt7QsCq4u8YsQe5v1bVuCftRznzbybf28i68ycvstF9LW1eHBPoUTx4GAdlhRCIITAJhBoPW8l0rF8a8Kqqs1YvutGHc/17LQ1ZS3+z//lraW//b1HVjZJdvNXsMEr3zmZy2VfWY6molct2/lx4PsLjmU/BLHYi6qo3bacWtRR9UgC+8jww5blz0I4xhzHueT59k8tJ5Lm/dX1hX3vj0+knnv+/NXVaXsy6mYv+IHzMvk8jFj0cfJGWgkgIFYPZR6CWNS5vuN3OfHgdBBAlH75JItQolg/AsLnEAIhBB4oBL7wVy935wP3McuRCsd24c4zIHMQtL0E079sWc6S5wcrURebJSfiRx3fTwd5z8nZeTuSzufsqlx8wc6t5p1c/Uok9/yfHclVImMtZtd1tTT7trfHCry9mCT1WYEQud2Nwqudxjbza+C5CgSvtq+wzWIYqeMl9ta9wAL1xcC1Z9xcZJEilk+M/UN6/V4JmcvmYumH0FV9nDw+Sl5HyaeT+i+xhvEK9z/3/PxbkYh9fjjnjP+ySRYhodCwCEMIgRAC2waBz379zSds2/sSyBWO3gKPg1wtJ4f1UA5EnQV1g/itDIg7DXeesh17GRXPMu8XYM7nfMuehWOfCVxnJm57s405f379PolTQeC89l/P1jurQYNtZxt4bCRtM4vOWCxZnfy0IN1Hnl1cWynPNSqpwOqH6Fzid5GyL9qufSFWE+/fTCX2+W+/0hxkYj1IJQd923qafCAYyi+AftgT3L9Me34Y2Lmz+VTT6A/+9ECGd78UIVQ9/VJ0U1jJEALvXwjYdh5u3j3ixhOPOm7EyqeWYfhpr802L1hZB+W/CT6Ew3aWUBMtgMTnHJvF6MCaQN0z6vOzPG8070ZGZ6LWxKf//OXpH/zphxcLCQP7VEHdo41w5c1wz506F8t0+Y0R3+/KO8ERK8g/CkFAEuAXBN2ReFWb73ttfi57GGR/lsXqVsvzo6vLq+nnvnNu+Pnn1kouf/f7T82Q/8xz33n9ano+WKLeDosgT5LfMd53U9eIbflzgRXL21VLVDm4Rnlq6Y4PoUSx47sorGAIgfc3BD73jTc+BtL8XyAKnwS3VqPq8cGeZjMwahuMluIsFUTBqZAEH0PXXNby89kcCBikG4D47RmuMxCOGdavZ4gEwrankUhmbTfKmkNuHpQ9vWCvTL34pWe15rAm/M7/+WaDXet0w/bv9YP8fiSXgyDGfaQ/SD6sM0i6sKdINAhev4AU8pbtYinlWZcjfjD6/FceX1iTIQ+f+cYbe6AKj7Ao/iT5PcsriI2VCoLgEkTnbZr3Y8+xXl91FyY2q9P6/Lb7GTEvDCEEQgiEENg+CBz6zT+qgwo08fMgGKidLBBvIOQ7BZKes7x81s/lbC+XibFZrkA0XFcqqmqkixbisShtTFQPgNjZy2AdA6Efh8QcsoOgi70Odeyajtbmk7mn/s3/vnrm7/+vNZvqjv3hr+Vm8s5C0omPOll7wLft9yA8AxAtSSTgeyvOFanHWEvtoVxZN7VCzHKBbS8c+9Tvps//j2+vsc669FjH0sHqA9eQfNQGlkJsLKFQddkyo7U7uM8hXSzG/Uh6/69/IdX/g//HI/8dG0LV047tmrBiIQQ+GBCAk19wHfsduO88GLUVjX4tCBXcZHuobpAs/GoISB0ItsbLpmvBqCw6WzEQeAQkHOMbSNiJ6bskD4XAz7Nu7Wkdo4M4TeiAmnMRq3k2O3Pts18/MxkFwbt+bumKZa0+/0Xj90mIWtLG/MlTwXBrx/mJnJPNIgH41GkehM/it7WL/JpQFkE0girepwPHDtKxunr2SlzDnHe6vHaBY8DvWadWT37rhfM1mfpG5KM4qqgoBKiJfCAU9nE7cOYCO2JFkz0yv9Uaxo4NwDoMIQRCCIQQ2D4IoO+vya2m2n3PaQQhV0EaYnaAPakPmga7gpijtm/HIChREFYUqSKJWqjJ9oNWvjdBKLBacpAsAhCwtYt1jio3luB1oI11ebj5cRD0LN+kptImuWvg/yv4aLpkZ3MX/v5Pnhxa33rtk0Dl1ex72S7KFJE4TnYPU5tDlINUAfmxghHyvsj70zy8HLiR84vO7OB6VRJ5tUDttFj+LHsqfoO66N6lfuOY4f5zYDn/Lf5P7739/PNf3LFSBe0LQwiBEAIhBHYEBIR8b1CRwsKvNug19Sd3QSR6LD+C91arAxVQF4gXb65BLzhcUkQLSL1KAknge2i1MLhFW+Xnc1I7DRDnHL83Hd9+yXHs8+7SysxWu7E//59eafai7nFc/Z1ACngKRP8E+e+ORJO2n02LnJ3h3Y/Y5f0Kcd74/pefQFDZGH77a289hYnuZ2jkR6B+T9DSepr7AvX4up2L/ryxqmbqb77UiyXUzlvgDgnFxv4M34QQCCHwQCCA8uYukOJz33yjNRN47Lo2kkgLZrNtLIS3w7W3gICbESm0fgHRsHdBgNqiVbVstnat7LKMpoJB0PEVvl1AMsH81Rpgr4Qki9HvDn133Fp3psTn/vqNzsCzDkAMHmbR/BEyOErlj+L8r9738vPkD+FxzoL8X3dt56wdswf+7vcekfRSDp//9rvN+Wz2ESfIPQNh+zdIRsctPxhGIvkhkX7u2sFLf/dHJ94tJ9hBNyGh2EGdEVYlhEAIgVuHACqrWHouFUmgjmJxIerF/IibdeQ+owrOv4Y1ZEkWxyFHJ3j3EC7B97iRWLVKwHIKQcRKozpKQzRA6PY70KzXIDZv5NOR09//j2vPlNCmveq25lrb8Vo4d6LH8SEWjv0JiNHjpGtkLQUrrGCC6zsg1dO+Z/+sJd7487/50t41Vlaf/vNL8Uhy8VHifAnp57PEb6J+Uom9Ydv+3+zyrP9v/R4Q1Xe7Q0gotrsHwvJDCIQQuC8Q+Px/eheVUea45YDMreAhfnsgCvLzpAVlkL5TE62qs3wvx96NlTE4+1cgLK/x7eWoH7wL5l9INCbz5QXqYi1lTuvUOId82382CLxnQPYP82k30onko2HKeAfp4keQo3/Kpeourt9Y99zXXq/POc6/RWf1Ocp7HJVYJ/s1xllw/6Zj+/9v3rOvbLb7u1j8tlzcbSk1LDSEQAiBEAL3GQK7nvy3uXg8nnYiwbTvuFdR85wHMV9kvUIWRlmQukyk6qLJGohFvpY/taiUWojTzftujq1LekuZ1ePVv75y/vzz5cWTd//xLzP/7dWJrOV400gF5GX47VbyrSNdDc9YZeF00AqiTjQTOfqZP1m58P2/LPurOvp7X8vnUqMrELAZjH1jLKzvJQcRL+gLLkxYVhmr3z198bvfrDS53VamPjSPNb0T/gkhEELg/QaBF089q4XrUdRDY6fA3C+++KJTN9bSbC9nP4S6Z8a3gxUrm7EyXq7bicRY93a7IBZa3zjIw1EMY5vteCSb+VSf9wefuTpbUiMZOywLj7P8sGgadJEk8DjbxqI55rpllyACp/ZgVAVR+asy8fXOev6L7BexrAu/+X//dMJm4YTER5BCcChoHcY0GO8frLRY0QHiLPErhTKhKr14kFfqFIYQAiEEPkAQ0JzfVqSz3bD+7W+e7UGgOMKujUMoiw5DNA6A4PeBnrsxiYV5xvg2l9P5EW+BxH+BVdNZJ/DfY7HhWt3YlZnnT32xktO3fusvX3nEcdyTxP0waZ8iXS9ZoJHCrYhln4FQfR+11ouZZHToh+s84X7266/+quW4v8tu76eox27MgvFxZf0rC+LfjGbirzz/J0dFZLY9mG3y216LsAIhBEIIhBB4QBCI1TgTaT/zGmsC/4Cu579ALL4NMv8hGqTLAWZJIqOsG6BCCh6Duf8CCP852PyT6JIOpdoPtq6vZrYq0e9E3b/HAPe/I4m8TLpJFsXBrXY3VPkY+T6NCe7TkXTmgBazK9P7EXuIRfd/RSL5EUQCNyF2KzvKD7DT8Gg6kjr4G984V1BJVSbahvtQ9bQNQA+LDCGwjRAw0kRvb28il8tVR7PRKByznXJSfjQazadSqVxVVVVueHiYtVxrjauLbazzPS26uDitDXizIO7heHxhgvUFvHwEcYCzGHi5Tr41Yvpaxfv97L2oxSxWTvwC1/XdL3ztdf/42ImJ0gl4RSlhBf9OAQ4Gu5EoGol6nDxwM27tAvk/DKHhqD0350SnMaW1BviZsJJanqypajiDNBODcB2HqOxl3YPT+Oxj7BNZivkrmee+852F57+4vZvxJIaGIYRACIEPGAS6WroOBm7ABjJbZyawpmqlHN+ZByGO8TDByUHjo6Oj8oZqCMv7GTwcjlS9kM13BB4b9lz7IG09DlE4AsI/5MaS7MfwrXw2A7fPXgkbyyjf/lk+CN6taUwOVVpEaTe3a+Ni3Imyz8L7OIvlH4dIdKJSWgXGA2wy/wll/A87778da62eKKWVmW9mCessL/h9yvg0ZdRAu8eRZFBb2f+9Iwj+abtNZkOJ4v08A8K2hRDYCgIup6/pkB0c6HFlr5e9ADIbglCc9wLvQsSLyP+QuO73PaH42987Tlvtftraz8Y69kEEI3D0c7QcDx6px3A3Xh1L1rTmUssf5V0CxO9F7MBlD4ekrmv8TCgemXrm0998YySeZyncslv4gCNDVxsBj/iBv4qEMgaBzqZmctrHMaKEIhif+darwxHPYdNesBu6rWNVWTdxohCpN+fcJAvepi8UfVtCuEaxLWAPCw0hsL0QAGnVoZvfC3E4wvVhEOAh7nGBYXegX2/IObk1uvTtre39Lh3evxi++4ePjbLwfBapSqfb/Qy4vJJPr45jPmvFqutB3PL3ZD2N5/FfQeL48Of/6vRh7Ysopdf1B19+bMq3nbewjvpnHn+KNdQ0Z23gPtB6CELwYQ5YesKOeD1//LXXCx4MiVQ9l+cQJvsc/qdeIs5VXqEG074P+3DaTh3RLnRJHrzflhBKFNsC9rDQEALbCwGQUhwCwWlvtrhV8F/AIqo9y0/PSVTxH1jcMOIFgy2Wt4IoMIckMIVLkCkvmznpRGPt0epaHBguPQXEmjmloikfOC05136dtY63KjfWIU/0WzF30c8HHKxk1eEi/dfdeFV9Prv6NNILEpwzOLlqXQDWWrNg18Zw1p/b924kQDGFKxIo16NsqWhgU99DdM4Tq/JhO+29Q8w1Flcm7QP484EdDA8AtmERIQR2LAScgG1odlAl4xyIA3vR/BjEAid6VhypgvN4/A+stqF4nvUYzgCzuWQ063hsa3Dsutzy4oedWKwRVVSVl1k9DNDcwMZuyXZWI/GFcTp7vRpq4Le+9WbU8QIOMPL3QSz2u9F4k5fLHoHQHPWT1sXf+dab/dHqS0vFxerp5/6PX/iZmgTnYfjDKL5wnW4lIRQd7IxuxW9uKFHs2BkVViyEwAcEAiIYYbgOgUjb4Hx6ua8fqUtGT1nAM4qPqCd8K3vcjSejXiZ1kC+se3ucoOeOfOYvXs2uTq1MFzf6mYyCmDttp7Iv4wQQl1T+x/x8Xn6euiEwT3MUxZKdc6oT6YdeJ7LZuT21mFmsr01CcNh/YVnsobAnKQKjKd/Nu6lt66BQorg+LsK7EAIfJAhIL2/OP0CSMP9AhHoGKV3X2X+QALK+rUUuf+q5vziXykVSU75rXcN0FQsmpxaT2b2RRDX2xMsPQUhmUFENc3RSrmpPtdRJki5MaM3Wphat0Tfx6LGK/W0ESHdxuFIb/qWOAWXPd4L0Ssa6TGRDKERkfufrb47SCafplClRIeLNQmhS8ZxZAC/m/GAvH1jx8sGCOSwthEAIgV8iCKzh3LU7us06zWFH3nk4/DdB9m+yuD2IKsmKJGvEbB/BwPgZ27c+ivfaPk67M+s+aq/cfswOZ0ecIHMRpE966xJEYpFrLZT6AHkdzlj5vSe/dRWJoxCy0RwHLflnMKf9BdLE62zGuwDhGFty4pxVsT0hJBTbA/ew1BACIQR2LgQkba0JX//KV3KZeGLSD5x3sIZ6EaT/i8DL46IDh07JmhYoC6fXuZ9gB/YjUSeyi7WGJOsQhuBISnAXpUIKLvHiDZJw5kSQ5toG4enDZfmRuvzswU8UraeqqwemknbV2xCfX1h592f5aPBqNOJcxhc5ZrzbE0LV0/bAPSw1hEAIgV8yCGgH9if/888HE9FYjEOMcADotHDUaj1+/apjNQ012eX5RyANVzzfHc/Vu85nv3Z66HtfKSD35//Xj6Q+//Uzg5xwh0RiJyEY7bg578W9+B7MkY/xbrHWdtMQoMXnbeM0UHtYdkwICcWO6YqwIiEEQgjsdAhkD2VnMWq9FHejEaye6tnRbmMu+wiL262c1d3oe94zWLKCV+1kImoL2ZelgHRV9Xgsl3rdzue0f+IhxJZeFsO7WBtih7yfYY/eEHsz3tuJMAhVTzuxV8I6hRAIIbAjIfDis8/mf/gfPjoZ8XLvsr7wCySDF/Hr9Cbmskt2JGq5sdhBFp4/yUL0U9mcj5+n6+EH//7AYqz62HnbDeSV9gq7rpedaDQOoTjCgvgj5NVxPfbOuvtllSgiODWLrKysROTQTOZrjuPgsMsNGkcb8+esc/d6U4rd3d2dyGQybqk8daPuY7GYh0+cMtdwG93LuGA43ZsQoX5R1a/eq3fmcdnT0NCQ7e/vv9eLX3ZfX19sdXXV9TzP9n2W2IpBsNBtTU1NbmBgQPrXBx5OWCeiw+3DMdULB3c+feNTFzm2u1XndtGmpqZktVNd47iOdsZixl6wANJ91s760Xw068fh/vL59MTERIq85YrhfReK7b7R+IwctY7ic+KcYPsgYeBSrku5stAyVlsPCPhr5usjEx+ZfnP3a+/m8y675ywdhdqDuezhaHUdIkZuF8PmUOAEj33+22cykeW50ef/5FlMXQtnUXzhG2+M46L2KhlewXrqIPirDhD2MIP2/Na3z3T9w+9/yLj2eEDtuqVifhkJhctkrmKi1sateBJ/jxgHQChyDpvs8/np9un00Ymj8zcgFms6/FagBFGKU14TiMectwvG8IMYw6CAHFNHjx4dP3futoiTQaq3UvZN45ywog0zDdVBLqjhNK9E3s9H4nbczy/kZVlRNtPbJJ/bhkOf1RdbWlqqhyAngH0EhGkkUuDBdi3fEFHgpAkxxu9BIg/TvInuidp4Lt7A2S8ucMjBSKRbW1uXp6amZHp4I6Rn0u+u312TjWU7IAp7PNtrpn9xu2DnpV4ggh31o7kgEixCJGd4nuq0OidGrS2ZhNuGr6nE7f0pjaObtu32siU22wP4u2W+vQ29NTOJmWin07lyh4zSbVdJCVpaWqqm3elkq9+6Sr8a5HuTjO5VP6yBRdFz7NDn/ups1rFzbbiWPQC06lBDdUFkufX3cf01L5uv8t3kj6nj+VI9g5ybciL5y3Ahb+AQCrcgAY4I7SZS7bfS+aOcl+Es2DVTL647b7uUfjuuO5lQqINdOFgX5BSBQ4zDKdYwSevdwK2Fl6hjOamKq8vEZsc8x5l7di5iRVJzrXOz3X73ZMyPLS9Fljxxl42NSBrnbsj9rCkvno7HnJgDKvSrvGWvibJaqQ8+6gkRSqVcRoPDYFiZm5trbmtrGwVJpoqSjc+Azt2gvNKgszs7O5MQuiRpOSirIBmVOHUQsq93cPD5urq6LNyxnJDZkqaIk8RNdJ0z5DT4rl+nQcr4THi+F+Xqw/3OkXd9JBKZJO+M6lU/XO9VcIClOqhFpWBgAOFzaFMknU6b8VHn1zl5N1+96qy2Ad8m2p4E3lGuhlCwPxWLcBzLoWCFPCx1t3c35e38OOUayaIodUnK24qzV7kOfR2ZnZ2NJxKJGP1sGABVTARZcKjKVGX9ej9ThINFPd2xsbFErVNbTfsbvLzXRr2aaD+udCKrEScyBwEVdybOfz336SCBuBAXwbIaYteUs3PtkSDSQ/o+8lN/q3157k39IEBZBtq8a7mTjLlxt9kd2evtncx62eWgNkiBMNVGlSPYbgVfR/WenJyM1eZrXeqrvK3lyLJXlMbUxyKym6VX1MpQiuMgUcZjK4hQxfwWnUW5Dfdqa2vzSJYl7rsUvzKPTe9FJCWhnbZO58g7GVmOxBUxV43DCmCVtbLtzMOYk3GWulu7533PT3tsQUtmktlsVTZbnG+lcjctY4uX5bGwsLAQrc5VmzGYr8k7bs6tzwd5qXOq6JmVzubOeSC16sW8NExSTvNEc2bd3LvlNm9Rnxu+/u4fHZv4nW+8humrOeSoinWLKNZNbUzTDpzOngBDwFxEr+LX6VLJA6wXi6esIHsVC6q32JfRyqJ4D4SlhobvpduP5vFEWJ0bFhHcFsl8swbvZELhgugaUoupLibvgSAb7AFZNDFJa5i2VQzkOFNJi0KazJrKEGe5lLdz3K/A+S1knMwMnO8krn3HQHzD5De0Ffdz0jrpXuq6VJ9eTHchTO714l6nuEpyboAk6CxdzsG1zBZ6ytZEBitir2DZWVDDcsSOzIGUZ3gWEhldnFq8CroZtvqtLdU/Umf5Of8j5P006ZtAQvDmdh6HZMo3AMllaMtiPBKfyi5nz+9r3HcZ989VuXTuEAihj7gdDMpm3ENjkx3EyEduGUTAAmq2Sr3m8l5+AncNQyC5gZldMyN9NX1jW6mkVB+Qe40In+3bHdXR6nbKacg62TrKQjy26sm7hjKi9AUO/DHgKwRNxgLRYAZQ5yWQyByTljOF7Uk7Zw/tadlzaXB6UJLGhlBUZ7EzKdWVjCRxt2wdBB5J4JwTHMiPc4WDXDqWvmSv2qd37dplzBJBJA2JaGIPVPsIddoD0hCRSPDLEX+OtAMQ9ZdBzJMQ7TWEAukoOtE60QP8jxJvL8SunWszcGoB/i2AsIa2OuQLs0iOBNqc53mVZx1RuQiBns+4GXz52FchJ5cZX9cYX6rbmrKUlmDUdunJdPXc+Fxb3InvS8fT7cA5gT+ffCJIzGZXslfa29tHQPBLnAehcXNLUhnjojadSR/LRDJ91DRJHXMJK7FCPac5X2KKfp2C+E5v1e+mdoU/UC3boz6m3MGWwUSn19nBSXDHcrFcD+1voJ3VyNLaJyDpGpdQZsdyit5P0+cp4k0JFnD7l5HmJjbh+gXLGyFvG0aoFmmwI+bG9jGHOxlDDXberkVjIGZI4zBKPbN2xJakuMr4XvUz/kLCTUzRb+OM3xHG1MC69t6sXLK6s2DnYgNWLPcC+ygyqI/qsWZqc2OJJBZRcrI4Q2N3j0ccMR5m3C4OjaWqWqsvI/q7DKoeOKHHmE54E8cpo+M8AlKeySXjl+6sNvcn1Y4lFAzuOi/t7QFJs8hj/yqD9ASDAEqNLxq0AMWhVh5wfGMMCXcXuTGbTgsCqV7OM4jfgsC8xgSY5nmz9QTnwq4LjfEg3oPXzEfo3KfID38sHLJuW81kKm5qUy5P5RI4G9cQKA2EC9yfhchUda52Zkf7Rie3IhbOkgN+4OhEy/pjft20URxphvS4djENWuLvOP54LoHIEquR1bTjOU0gl2d59zR128N3OBILczujSy8jNd4bwkk+07T7LeK/zKw+g0pKXMpmKilNpGQ0iLYz0fu4PwbCOUzeHM9ot9NOecjUwpskB85YQYrYPCgf1V/tGCLeuyCWN3Fd7XVb3fPD1rC4+zVhfn4+BiJrJJ4coP0WH3+dayPp1VdqUzX3cGHWj7lmIUA2xDGC9CSYPQYx+zjvD9PPQu4ePyGQCcp+C6R/DaTzZmWBvVZvYrVxtQ2YHOf9p2iTzmUQpyoEGGfcmIFE+oICppiY97wowJkrxi0YSQJf0iv/l5FoExALSRYaZxuCOGQn6dQj7eynT07Sj0cpo446pnm+yvXHEK6Mk3YkVZQkiw35rH+RTqbrKPsJ3v8abRfcUuQ7BbNwCSR/gbFzARhLFbkl01LMk2TmcAoX4lsNk9VBTx6k2Z/k+4f4xIlttk5c0xwszAdueBaBUX3VXwP8fg6hj4PAHZD+EBJgJWe81bghGRh19+76fCqvco7y+GFg8rBeU68WrmLWTHpVlKA6qE0iimrvFe7PU+4Z1utEzA1i5qpww3ILUe7s79/9h0cmT37rhcW6oJ6D6dh853vHIm40gRPAhJdOsfYQ7I1Y+T2cV5FdGluaL7r4GP/sf72Yt1dWjgJB7cDuYNB1MuAexi/UQDJIqK07Juw0QiGxPAIX0ojq4SEG6WNM4A8ByMfo5oMMhCgDB94M+NEjGiyFcVqEZ/G9vvNNSKOK3wK/YZBQNdy1EFhlMIvUqHB2oVI5lPNzDzN5ObDEOgoC2kvEFpBJubzKhLovl69ykTZQYRzgGqXOcaqZgONu7lzsfC/XmhOHNck3Dexy8GpQr3h2Pfl0R3DWyYSUY7ZYKQLP1TxLctJEfBSOLUq+jTw/zk/1lEtohU3hwQBVnrX8hPCY2awkOH4ONVnQOtk6V6GGUpE20kQdE3w3+T5EmmPFydrJtwbBwZRTrlzp5vqV0khKXQQPpADg8RB3gofOO8g7bU7Vbnv3ZdRYOhSnTLDrPFRbebYVBUENdWynrEZUZVA630wWlcu3Kp73kd8BJJTAc7x68txPmeqrw5TbVKof8djsZGAm75tlePLOou3tqJj2cnuE6sLJ2Se4HuLKaWaqOKAs0cACaikhGPNRcUrxFJeyJG2qXxEBgyQELN7T1nMxHaTXc9O21CjoZhLEF/OhOhwjr0auqzzLvcOFqBOtYp0kcmLhhI3ah083D6zPxSEG3ZSPC2y7lXxWyE9IMsf4mAVxDqPWcqenN6VflQVoNUZjkA1k9jH1Gu07yP2TjKUj9EvtZvOB+CYPytfJblXEl0THcA2aYfbO7W/fP2jX2gvrOPzKcu1e1gGZhy1exlN5D/MToWB/QdCnNmk8KJCv+akP9I9QRd00J9r4NfDOEHsv63n0wzvFfhDjUOpHpbnn4cUvPZtmkXow77OZDnfhuZWFhzGZFWMFLIOD+Fg85jp2NravSYySUcGeeO/g7OmuM6M06BrvOmhhA5Xsos+6PC+ncbFjwo4iFAyWGGJjK5OlD77wGYD8awyCh+j8eq6cFQLIxdBVdHlpkBqIlt5fv3oMKHF9eQjAGiSt+HB/Um90U5788Ysr/Qj5d3AVotGP12vL07vKsMn3dvKQx8f91P9JEPtLcJD/gN50hYkqLqccpE+FeOHpy55nQjZoElQGnlVncWrV5PU4V00eefgU8m7mZ2ZKZboN8Chk2c175aEybIhiZLl9+VJfbd9o5eR1PdwauyzC+fYh4sq9QA9laOKZUFlO6d366zp4IFrjAE3EzrbakSoOAZufoHn9F9KVCQXIJ8g7eXoIBYNlp4GF6eNyeaYLIEIYmZFun9oB8ttDvkIqbbyTSuI6gscVs/LhO2YHdq55oNkbgNHt6upq9rMQL8f6BO+f5fte+kmqDNPXXAtjSzALgDsqNK6rXIWeYjApGi91QlLrwm6+VdO2XWDWLuKeQTJ7hThy7FYed0U9uwhCkjyFCNrIS2o1qXGaeV8NIY8m/WQBK/LyVoIfxQsRa3aCBflp7InA6uznBsqp4Z2MMTbPU20tNQfVJU81/HYDo6PUi01hSFqB1U0fVW/Sbj4VBljpQlqNl0eJ2827AxD+joydOeOv+ud4L4S4IYhIoCLrjNrRh6jLScr9GG3pJW+1yRBwlcN79cssP0lMVfzq+V40NTDqyV4yl5pUsG2k7E7U1q+y1vK21lp4d19DEE0uW/nU28iZ1CvIYwX1GO2pZuXxMDVfYAAvVwfpASohwmVpQfyzf/36jO07F3lsgt84RmdQd7sdzrD1c399ofa7f3hoDc5Quu0IO4pQaIEWIOwBuJIinuT+cdYLxFWbQaKr/q8LelOajBryjNHyTJYaIkVey0gnKbjlSt2xizvGDi+CftsPniDJ0wywR8W5aECaQUlmpWtFmSpLZaqszSafkIBUQe3E2k8clzxHQExLXbVd10aWRuR/3tTDWUSDkzAIc1aEYpO2lQa3QSTkyxGJQcxMDjJR2KR+hQ8Vf5nk6udW4oqD1QEpGbByGnWEWMySOoIzU0BaICsQnjgzcb21aqXKKJZTgnWp/aVSDNx50HVNoCwhV0kpUu20w3Gv+BH/Yq/VOwXyNiqJBXeBlXHWANm2StlqMydNssokxEAw/W7urAT57eF9F4/7+Gndqlw/6luKqzyQO4y+3VvoW3BYk4gvLy/vB/E9SqSPEPWZyr4mT4+fVH+axOojqWqY3NayWs9VKimtj7UwTlv5JmQsCRU306hCdTZywBqOjQ8fED95L7LeMIwJrSRJE3gXMN5cpEhJT0KAMXHoap/SqAyYB5e1KTt9NG1bQq23EEjLqHXkKyhZkV8NuYpoxECYxiLtpllRPvFBWKxBBGYeSuUj4qz+SPMTXDV2Cx1T6G/BwMCBq+AgeEhNWU98jR/JvDTKXYYxm66UJIljAkSsWUSCcsUMfYTfh0lT+AjBZm6k6Est7qLvDybIc5VnGYFIDSbmR9danjXOZa0mqSZJ3CrAuTDeNT7AWXIzfLuvgTUJSQvvUXMYI9XN7nUctx2/ULt5vwzUrgZpt4H7cl0ivj2Tl2sPLWpbjnZpd6F6amVxrAs+chd+o6zvfvmjy+RXgjnJH3zYUYQCv4xJFqiO0dEnAYVUH0KQ64NBUqWBRFxhhyUGjwawmSxc+WwQiNYWVvg2zsCayeayJaTodjZ1drI4dhzE9QniSJUjCeD6FOC2HHhfRkKBsUTQgBDSKtePelRELwxy1YFBvh/k92mQcLNdbf+od6n3ZRCkIRSyTGHRURNgivQS95WfJl0p6F4IRMRHk9ggltLHza6V9djku9Rcgq+I3WRNvubtaVTsxRAAjxU4db2YJR56sYK6ifqXkLEQ6RJPUoWpkSUkIQQheJiGr69D8bWI0C5I634IwrGgNUj1eX2X+2f7F7FYEZK+DkAy2yIICffyTXFbivle75tSP0ntYbGoXyTksprjXhZNklKf5V6qJi5moJi2cTvA7wI5i+sdQ1WpyZyirjIuYJQZIwGOwQwkvbQynvbwHU6RRXSkEuXHT0RxP1c1ZxzJbay3tff8wNTAFHG92HLMSyXFDJODhpRC4a/qYO5KV/PtNv9ojJr8CpBUfpobheuN8ipCnjbVEk1ITVmhL7dFZFZoz0XqNcjYGKX/ZrgXgVe+IpYt/Dr5CR5qu5E8iMOjsRz7EHNADNUMEuvoiRMnrp0+fZ27Zy0yiZTXS24fI+0z1FfMDBf+BYGI9jXgf5F6XKQ+nCNtLTBns3yVebrmhnY2Hya6LNWUTz3p1Q8HuPo89yOnnmVxexnpWeO32Fru7nH43tg/pJ+r++RguhraikROo2E07HY3GqvGgaDgiuGF1cEhR8OlQ448KzaL0uM9hkwzBAIG2RET1MpoOJDzVhlDVdlTX/3qyqn7WO9bAcOOIhSYudUiGxyl4k8zKMS1CdGub4cGaGUQ1zfMwJC6QZNYHIaQruJI/TDFBBjCWkg6Yw1wBzVQG4j7AHGe4NtJ4mhnZAEZbjaOGFrE0T/pkse4znOtRxIRByAkuSZQfvmZeNKdfpwXnaSbc9vd89aEITbYNsE3eHBKTD7iiYtVXtfVIHBnPAvhqXDToFLequ/6UPp2g/daiN5rkJ5lvb0SXRFhLYdILjIPHz9APrIFx7WxQcpmiBbzlkXXJN/EWYpLLXHTRpXCc3mdoJRpMZ2QqF5pAnfR3uMQpRQLphKrl9qH2/OYqV4HWinxxqsQU6nOQhQbYhTfiZBpMZ9ibZna1mPrLIL9DAmk1qhbl3aeuGcZe//CeHsHs+irpJlJJpOeNnWqn1wHa4JMIsrCsSy+ZCL8IfL4DfKTSCD1mhBUiVhIPca5x/YUxhFSeb01MjIysxTFVDuH5ORQt4IEUwlbMQ+q8MZGbWjlJi/Ekwge5r9ajgJEa1sFZHnDfIltMuQqQlFifnR4kVSBl/j8U2DwOlIoR3Xa1xpGGpZWeuEploNGrJxk2XOMOE/xk8S7z+RHlsQVgegmH42TAdJfnB6cXoVYTBeJRcRfQTqLs/5oGSLxTEkiIq9FfpdJf5brT9jD8gvmyhhjNq/+QFLL9MpMPO2rvKfI+0muavPD5MGBP2wmCvy9PPdBZHoxnV3YSqIxjb8Xf06d8p+3TqU4svRKZj49iIg8FeSz+yOJGtfKZUVQuyAKe6pq5kf/4FsvjP4N6xq5VGI+Hl2+GkR84QksNA0P2QChYP0Nn1G2N3buyJHhe1G9u8ljJxEKdra7bFzxO2iQWbxCxN+qbRkGhQgA7niDISLpJyKALbLNLsmgk0Ei3fUYwJf+T4RklmuewVLFUtI+nk8wmB4h7m4GniESfN8YbKPrFUeoMsTRjINQlpmIQgy95C+dtOrcyPOGfPSOXxQLnV7q25e20/vgomT+mNIaBWmlS5aFkHTimzVYGJYsCoSBemshbI7rEmnEnmpkicDU8NMkF6GRJKVJujaQhcmnsPDXnnASGrzjxUgBdVuMebFhSFM/7/opo7DpTCa/QTBF/UZ4L4lDhEK6YSFrbHkd6Yu1trMH4smuVKN/LyEcopYDUcxi/G7ejKKGkYpCi7Z+dwZcW2hiOfImN2qTVBkb4Mx7qmIoh7jNRWC9SDzBthGzZW2GkhTRSwUK6xmCfBBImhvj9x5lv8zvTSfqvId6pCxm8W1tmDOP010tMLLiXG3DXT/CWxkAlKQcqUvF4YqhSGG6KbjNaD/P+oMsiVeZ/5qHyg83vdfIuTn8bpgN7THwFRj5yez3Mu17kyq+Chf/diwZ65cF04iGwYDJaqy3tzeVT+c5KMFIDVKLCqbd/GR9xX+q5dtaT+vhYT+GBHOMfan18phMt0JID5H3Ycox85D3yKumH0epzxs8vkJtXn9y5sn3nreeN1hUcRSoi+bCxe62bhFzMZVS62g+tpNWRFNm45KM9mP9Ncv6jzQB5bUx7u9LeP6LR7Of++vXR5G734Pst+UzqwfwA+X6fp4Fa/cA4vPUbFAvfDUqyQIJYywWWRwFXJh0o3jUPGbtFLl0j+VEmCPP3Zd63k6mO4FQGMsjo/f1zAATV6NO3hBM5+tTAEcf2D+Fi/g5YukVTFGluknpnF8Gi/TIPSAv6VdTSA5n3JQ7NDA/YAYIeQiRPszvWX5H+SU0MTYJeinTTHE2b5PuH8n3LJpscf4K0oPuYiAe4f6TfHumon4mQumP8ieuFna1metR6pk5aZ082x/t9zGHlHisCXpL05x8VijzHPGF3MZ5XiV/Lcju5ycOCq5FZ+6W9zjwuhhoEfEFP5c3jUzOnr1te6eaeppmxeFpsZ2JP5hbySVR3nQxwSVBTZHXO+Q5gmnuQj6KeoqVZ/KAMXZ8LJi0tyAJkd9LvEfI/jh5n+An0V9lFQsvXrQqI9G6YOosCUFhMwJZ+LLJX+VZgjXt5b8pRBNPv2XGhnTZUjfKvr8TRCTiIGLRyJX/1EvqNCsY5s8/k98rSAgXkKaujY+OF0jBJuVWvrIT9hAmmIusrfSTnVR1apcsmkSwVb8uwYhvq6yznaG/Lw9EBmAw8xTlmTpU5rdT7ot9JpUPp7IF/wIMZW46mPJTk9MD04LvmgCyXsCk9RKQT6MMmqb9g/w0t54sNxJw86w1MhkSTKJqHOA5w9jZQ/5PATvNx2r1azEscO0n1QusZ/20arRqYj2RKEXk6rX3tL87NjaWReKQCuww+YgwlXBbC/nIIGYWqURMkZi++x5EDHAve9qMC9ZT0PZqcR9DF+thWrmIH4lJKiHLNEvE4rf/8o0Z7N7micPilA0s/HYG0S6mRu3U+RdvCTfcz0aVgHk/y7hp3nADCTbUNULxG0BO8eIkvlE6bUQbYQKexaLo4vDksDq/jGxAdg251dweJr6DCmFkYn6ihNwtnmvRHUtcPUYacT4bkZleFhbttPA7SNwzdOCLIxMjbxc+Ff6iwqqN2bEJBv8eOvcRBqh06JVRTN5FpCZOmI63juBeYmqgd+BqIpJIpTIptq2ZFoNW+X+DUMx7jHhnuX8dGAyS5wpEthGkrYHHopfZqS4VkBZMt8pN5SSBWHPaTTctXF0QpyUpQVxaGonnmpN13qZWc0zkocRq4o3+5f71E0x5lApw2Z2bRxIRkpSU8hBf9K3cnoq6iFBLraj9GtVcFYxqpJCk8OJmf4v5SdWwRFslYYl718KzONoZqJikIG1gFBGVeqSX2pRVTnxTuivEfwnd+U/aZ9onb8cyRhIh+eo30dXe1Uj+u4FXgvzEOctaJ0Z5vTwPw223X2u8Vh1fjvtw0CW4lWBHFjsnFOGK3tx+G4L2QiQauTI0PKR2bhWCa9euzWHWvoJxxCx9KuZiD+0Ww6CNsaV02u9zgDE34KScuOIvTC10MHceoQ9lYVciFGKERshDBPhtpLtrpQy2uhbVWP2d7Z24xbBHKFOGJO0mPovz5CUmZpR+eGurPO71+7xnz7DdR/O0BiPjfUgXWktpAhwHmRazHudaPPed77jFU/SsIGrNcy7FKPUcJA7aCWuBtHgCuI7X7nUdbye/nUEosP7BZxNHmBtdkxCm+QfQtmqLFnY7AeRBuJJVEPZqpekpyG4eFVMW1xGx3oHe5QkWBYrBgQNsRRIRojL6dPIofTNXlaz/vBf3JP3sazy/iUsKqSjWBJW5a9euYRZJpaa5xMc+fuKSN4OrrHg0WfaT52X0u8n4dHw13YY16NbtLJXnIyktMwnGyeMN1Qmd+elMkJlm/4XY0wk7g4mt689xL4lMHFSpHaU81l9Zng2gJlEU5qj0KwJIcKG7ufsd4DSA8DA/tDxkiAQ7gOtZR2oCgYggVImoU6akE+1xaEe62039OilaBGBNnhXZ61sHbejE8Z6Q+FbxKpJsuJUKQghpmqv66AyEYYhrGmTtobpYoC5zPGvx/mngto94+kk1QY8Hs6S9xO8dfleGZ4Yn2AgoNcadBFlrXSTPH9ESrZNpUd8sblO+SKnq0J520h0ZP7PMThntKRFTw+s7Ke7ep6HOpjL0nTKXwccYdRyOpWOj1xaubUYkSn1WbkHR19lwT3sP+vWAvQHWPPmVJEbNB0m5GfrpXNbNRpvPNQcL7QtSbWrO9AIzzQ8xK1e515x7AzXgMM+3GvKUOUS6d2mPzIKFIyRBYm4KQxgYq7tSfW41zzuOVzd2ZWahvcuLRRP19PZHyMh30d1hMrsPHdk0W0bbM0vHVR+t01nxvL/Cppez1LcKBSCqJ0eajEHb8UZOWif9FxVpG8NmCO2BVycVT2mArMLprzLIZJkAvEpj8Xp1NJAZRHqhTTaHueaht0k4c6e7rrt/eHF4thS7aIa3OlBUpuJxMobDwAbQSAtZy5RObgDoi/JYLyS9Xqyklgt8/ykc/1kv5202YdiREFlEfTRIXueoH6g32Mu9OMpy3qo3QTnLBFYLn7uImWTDGwsyHVp4LZS9yV+1l/TaD6L1lreZwKeJ/9a18WtaexHClNpqnsE01t/aP0/5h3hW3bXhcEMotldfoAM2WxDz3qq7WpbGigk8kKf06qqYiyuGGtZTWjJWZi/Pe0iHVQabq1inAf4iGrLVlwpP0kIT5Wpyqt66rAlqD0GL3+L4yhOX90TfGH9NYh6UnnhC6lKJXSCfn9Gn/wRpvgBf4DsLTvzK3BWpGXMwCz3UT5Ieu15tuehQWiHCQW7PkP4cY26S5zslEiSFK6iOSA31In2jhe0jvNpvylIHyLwUKynqh87ZnkQNJiMAqRtp7c3bawq433/UJYWqcB40xgoQCZiB6fru+hXsdjYLW1YcvmEaQjAJvCdoJ/p1s2am9SyZ3OLTKGjHLD0m899gyliQdaFRMHiI+BgGB8OkPcv1qnw3bVb4Vu+Y0StYOA2Rtoc4+mmdROtnbZSveS/14AMJz5/6ovDY5G9+47WrWK0AC1ycROOyCKvOp1d7pFqK+BnBxxCK5cxkOpHoPIv0Mc1B2ljVWmgK8osJq2ry1J8BuVMPpNpbFrIjCAUWDGn2GCywhWaBjt0UIZdawGDSrfwaaeJLP67towk7bveiAphBfSVOZiaRTsyzLiE1hBlsstLAgVmSuFrDkIpAbjdK2a656j0Sn+zwxVldhFBcK1pMrYlXfEihux+j3H4GgXSju7iKUy5NPnPLHyF0DQwRxWYQtOzTpcTectLxvRS0ViL1ygD1vopjNCE3EQkFg+RftF5kk0L7KBKTpI4ZhDPV5YbhBmU7EIequB+vp+2tWIx1oKfupF09SA7SAzfxK+wZYAc8+chm3RHcuCa4lgnAZhUgHy1YKl50s+9bvVO6YtAkHKBvXqOfXmc0XCgyBvosSdAE4ssvE6piqw7VnHkHbDisHknEtq5yP5yPGC+7xRR3dpG6jpTXGH+DtEnrZdoPIklLpDbOX8FLDgvBjmZTofr8VvqdaA80aEf3BHUfAV5zRSnhtiqwHCyv4PpjgtYNkVDjfRe/KsGfvpK024BhRx1qKi0011Kexo/GDZ8Al/aDymULatq4G8/L8R/3PoYPm+IqdqX7MDFaTK+BgZGJexN5SH1dGCz66xuCoZ38mnP3O6jEct/auehcEPGwFAwm85nUXjcmQUcb8qyWfD6rTXULjw09tHLqT+0M92PxtLfo4doRl3aZzNxirqMulYU7Kud3vyu/Vf6bAn+ryPfpvYDgsRFtpivZNcWgEIWV5cqNOlUIRtZNcTpfOvGjoGHxPstwNJqo59KR9Onm5ub+mZmZUd4H2p072TbJqgXeHQsLvSq3MJi4WRN4y+DNE28ezh8cNLqlpQQ+ivyl3NI0iPQqechHjTjKzQJNY7gULGPk5Ezt0yr3loNAE6gYxH0uMvhHmQxTLAYaqav0sXSVOSdrM1I/aZIKOYlg3QiOpaRrrsbJnJU+RtuPkddDLFTvJ0IbddcCvnZZx6mPLFwklWkMlYkuz8LIt0IACuqXNSXf8kOGfn8XBPAii53nWIDelLmQl1P6W5KVuPpSEBJf5GGc9zPJVFKE+14EKJC3xDiQOkxjUAhSQfBvRBXWyhrOHARc614yZd2y302qB/XnOlxUogiF1sBG+YnJ0tfbqqcs+Ug7BYz7udbTTKnhDOPAs4iF9j60sH0vBTz03qhei+DQOOokjnxvdfNuEWMUmbgzFN0C4SVBZeCDj/QjiTtO5jIx1VpAF1dJutzSBMeogqvI90HguzXwiuFxACfLkwz2K14ui1NNbQ7EwFPzE0OLwF+YP1f3kpjZ1He//NDyp3/AXo9+RJH4jL9vzxX/688951tfqWzx9tw/CMDdest8diw6mLLa+D5BRUNCTbICK7g2F72TmkMqjGYGyV4NZw0oftKnd0ic5VyGaE9LTzA0PTQ51jkm5GX8DjGgFBTX3Gz6Rx+xWOkY7VjgzIFNo+glSFtuwBeRW2RRMUOaTZG44lJPc6GW0umXBv4NKqHoJiiONsPNYl64iCfZQguKH0sX1GDaNCf1wQy1F8GQqH1DQkGddOBTOb+jrUdrloKlPnTJT5DHR/mJWGgjlalvcULzai2GKdXhNq4sSIEjbjMIhtRBpsTDmJ2+Mz49LsS8PjjsipaUY9xiUNeStENzsOeV/hfrG4jMLB5pcziFuCeB9Z4U+jwxLHOUIxWcYB+BSKB3tsVBJ6SqRN648di7J7W5g0zkSJO9PsB2DnlVKrrbJhQqlbm3BEEszAe5EqkIEACx1PWgbjGEkrYkLZeCNkrKDYmkil5KFwIV4VGMTQecxi/f9GMQ+9rtLqlFRKIg1ZKKMhlpvrQIpTnH5wcT8MbvBS4ShW9doZptfj4jyUZ4Fw/FEEPbmZqrdjUC8SBhBz+47inhFj19PZh27ChCgXg5hwXKq3S2JrnM6x5hkGgwFQLDgfelJz5XjB0NCEEajp2bh7kXF9mO87gaLHLeATGkcCanBTN5/byeSTm3DTeK48vGf8OXiheI5wGO5jLouuXBUpytFpdvHESCbiVcjyUVlQ7QSUfykQwIrqR2WpOLiNYKqk3ievzEqSmd+VcJt1Ii3tk68GlicsJITOxW71mwF54ggeCuPSaHuZeHVp2VUZiOxTopVxOu17HwXOwjoUKC/qyPUYh3d3+FaDOxpZi43g2hF59hGAvUZaPZBtYExFCUmQ3qjYfPYIFeGotVxaZQG61BZBsyu40XLPx7lKe9LeLMla8Ihdpv9ptwdz9gcRs1vGlUWZ9pvJs1lJvG3iICLjmkDvJAzhqnZiCUooIkZSYuqVROM3V2SiVMhMi1viVJ2IxdrpXfedwQSvkzQg0CNvtsFEtZm3GrHDyrBgJ2K5LuhgLu5kU2WMw5QdUkVRmgNr3kpc2YwmmYvwY8O6PRqH2V5x0ddhShQI2zlF3IvoqTM5kugs9xLFZwgLcpEJmQ64ahiaZhoYWsToa7kJwNYrVYQBvBygb1qC+V0qaIdl0huKpzXMz43PVnGayLZ0w74RqFgErcz7ooxcfykF7DRW0ed+Nb7bLN8xMRKOW0JhYLqqbOwEz9ql3YZpIZOK2Jef0B3bEQg8kPRRLn/ewMW+sAACVeSURBVAaf4+kE7xjIZsLKx5G4+OuJdFeavsXXlGW+m7LWRV2b8B49QWzz3WwcHt6Yn3ZTs5mwiv4TZ2kkqgoYqHarnIQ3d2XgSnk9Y2Mud/imsBtaFjiVDINxSV6E9R1m/ECSiaBp7MgBZ6mHb7tgiIQW7CW9ywHi2nwg2byLiEggZWnxX8+V81jjVsTkroPyNeOyMB7RUKmgBxtyNXXZSCo3heJsgMLZ98QaGt6DaTCqyWAvlPGylcncUOp/sDXevLQdRSjg7iTujnY1dfn4fJIZq3SOh+nwWhCxpAyJlTKvLCCqzbtdtEGcBDshfblteBwuz0MsPcvgHJQ0wQA2elGTzw3+UH6QOIfEeoOAZ0p72pt2MXuMUp4kFqPm2DSJBn8htzuZBnL34TO52AKLM8GbhZuUAITEsXFwaj6KmkY27NLl9wE3NgQFhwW/UhF8K93qqocV3knPr41Z+nFgizFt1Fch505+bfxuUgti3GlAAyVV22bJkaw8OAIdKJUpEvA10WhfJBvJXpdU13y98wdgAgVn3UyL+bjrrsgJjOhI2hW3uzVMaJO4cVSmAUzTpm2ryLN8S5a3HLecaPMb5SPself5qT6EglSyLifBAFiw5KDVhcKmUOAFOSGiiCsWfMSZ44oqBq/PBVNifd8absW2EEXbDjSuC+3gPd6ZdZaJ3r2KUYbU0g801F+5mFve3YdHh6Dazksdxw6laAxTmWwbdeoBBq1YWzxwSed2gbCjCAWVVwfncSw8w0LkS4wlFoF86ce1IaePgSM3CftgRAr1Lg4d3qnd+lMeTMV34oyOk1YbopIsnslttAZdpV5UaTcLGlweqifpSbcMMvPLzGQ4QDoiIia9aBnBbpWI8l2We8t13Sre+vdMLcSj2062PhvzTB2MBIQNVhLiswfVWQc1OgDcWoG3aUMRhtfTUzTvtHA4wkv54NFehAH6aILJL+sUPgfyAvoc3z/Bs15cT/+A7tgHksY0doY6TVKkCJlYB6pr6qJ9DDpSs5M9MPMYPCzciXVPsSnqjHIDWaNwYC44U8C4kJDnVgUgAELU6YNc+YmYbNaJGm+SGr0UXj/uQEFdrocp9c7+mDqQ9K5VTygrxb9vUD2Rt2AgeBhYqF/Mf0rmvdR1b/P7Oe+vobpaZPzI1DuA2SurD/l+oyB4K08DD61VqhbUZyqef/CnxhXNZKc+/c03ZPExRqOznH7HgHRq8tk0fs/wGxaL3hRn3KjBD+LbTiMUps3FXa+XebiKdHHejoHsbbNAm2UiaWFKdvExJrwGm4CsQVSefJXICaIiywudZ6F9CK+bgUdcM0BNaVv+AcvZMXYpJ4r12TQiag6VXU2dZLNdR33KFkAbEhSnMvlmQdA3XPvYkLb4gvrfQtW3Sr3mvdFFQyR0ElkrENxPjbqIIYlg86AZaBsX3Fe4fQXYvp4LcucrXWlzWMwIceSWQVLdRpXV5jnf0Vu473Kfr8tApmqrrE3NgJq1aIr/HM7EKASNl1Yn4uwDgSyujKzI6ulO1ynWIGfGQC1w1E5g4/dLxdFfUkFlAEcawpVjzczjtMUCMlOE60FENQpii6EWi9ymm3HwjoB9PbM7vNN8ijAe5ArnVhHzhqK0FgCnLEMKwXxNPowJ9UWWtmouX1cGqScDFq9t4733ZczN3+7o6Biv9DS7oaBfohc/+PJjU5/7q9NYw8G48IdDjSwIBe5F7AYU1qWxuWNbtFMIRWnCrx/q/sjsyMjejr0uCEnuwgcZgKeBpnb2yl9QO/c9+jHojC69COlSPteRKoe5gKBlty3OTmqBNQO4mK5wKaTWwfcNbLTr4OVVfqU810SV2e3Ergk5gZOqRUiiUuWwJi75kYlxHTGPGlfISe0utX1N3Pv+QEVALoxRX4hBXntlbiwisZUYnKam07TvMo04w/XNnLWWSKjO2h/CvpJ7omO+WxjQ39rAqXMAxJmWCKD2VWjz2zHyX2Kzp6SjylBAWZVvbn7vIJ2gdzY7gLX7W95L1ddKmUNO0GKmOGTjVgQzWqq1odslYzYSp53d71Mcm1p2O6NMbhS0ux5VG11yo1i38A0rLTIRs1MngkWKO2JmNG/IZzfpZSJckqxENJWfDBBmI05kjjprjahskca94mg8xiDw9n0kEnfSx6reXQVw1zKSzUR+delApKoW03K8KUudnjMq9bvK+34n3hpZ3u+S1+a/KRIuRgmaxppGM17m9Gpm9bssuH4N5c5fMBH/ltn2j8Q5z0/qBcPB6krQQDDThoGnwSctpc9PlFt7AbZChkpbmuDaI9CO+qsPqaaLRe1NCcBM74xLzlJtiRtv5Wd21CifdUGqHnG3wwyYCX7G/JC6bWcfsHIZYdUDuOiwJXarU781yAEYlOAqrniY7+dpx1mWyy9WShK8t3Ew2M6+qIdIIqS5BWk1Xx7IHxBultbIXFW7uHWGusqN0g4xF8dhFQ7GgphUhncVOHNCJp06E+EgbcdOXoOv8I93KcappKx+zl0YRaW6Arylzlwz5oktJC0XLz30SXM6nb5lJg49fJzyC+rCtdnevF1ralEwN6e+YsKkRjVz6OaZXI9Rna2WObCYpj5+PeSgndGlObjEPJEfqUk8zmq9QPO2crxJLdhE+XvcnLsHad7Akjj3Oqxt9b3OfYv8EPo4gAnNBuuweJRVLOnT8Ifl1n321OsFc94t0m736+1EUuvbHrAwHEW33CLXC7gg7mhsbNTOzpictbEzenl2dnYRNdAsaoWLIKqXmVjyCXOJODflvhh8Htyz9OtC2OgszGRdX4fKZ5nX7mGMP4qNxuHJyclNBy0Tehc6+l4Syq20FnFlr20mRikzytStBucME2GA5xF0rqu4FYH1dre1D0CenNRYOFeC+7KllKmtan0dVaj+UhVkUDktsLmvvDDY29DbsHvX7iPs4XgaGJ8gniQ9QUGXbQuJVCIHUzFJPa5QFRE5EWejeuLdPt4dwBRmn1yUVFTytirNWK3SGdwgxxPASucymLNQRJQkQfJuDgiPo2wZjc/HJ5C4cCVtC0FqLJaLpT46ErWF8dEJp92AYcT1j+VYG2/6mvrqcI4pxHwvEI2c+Ela7wJ9N0nturHEG7/hvA5JJOp/zQV5bhWDJXZNZsMT/CZx+T2P/Z5gIGyp96X5IjNsGbAcELGQA0++v28CC4zsU7FZqA/mAg+3gcboC99gjl8Tac/U/PHXXhejdkv9/qCBsq1Ian1jObymFi3lo6guPoUTvl/B8uMAzunEpW+QAEQwmPLyffQe3+UyQHrP9VlWPos4LMPJi8OUh0pxyBtCRR5yMaF9BCcZvE8g3mvgr+HyQDC74P4Ow5lqDeVh4u4hzpoJSx6lMrS4IBXEeyCQwUVvcTXTxwZj5OxShO28Ag9VtFzZcl0EowKctKNd6qk2kEiydNa2JC0v4R1AnfIr6JV/Bzh8ihR7TV6bwLec7wO4WYmtyEx1mFbJE64YCjlW1PY7SYs6N+Og+hZXESfEoNxJldysKyd4Ok73JGPnKfJoB0YFIlHYeKdzHSaTs8mpAY5+heGYoM9FPIyRBN9KxWqMNzM2OsinlrMrWIK9cRCBS7mpfTAq+yhTKq87C9f7SarZPfz6qEdnLpfbClFvOlY4RS6OBC7XOiIUOptDhzypTmqL3KZc4zoCUV3OxDNyoChisWAIKjcEqYV3E+8x4HO4aCBS+HL3f8uAvvus7iwHSH+OZXlwj0O7bZgWM7mQJCEUkZrqgUXMoYqT7c5KuH+p1iC++1fMreXM4mQdHLa4shNMplkQUj3eSRs7mjvqENmnnHpnRaehIWFo4PlyauEkOELMMTtKxS2qPVshXnkWnUf3uki+o0zGMZ6NBEAaI7ZzNaFILHR0p861wJd8gKMoZ5DDauT9cxiJJls8dOUodX2EREf49TIpZB5byKT09/rwlJ95HbF5gXgDc5NzK9XV1XIFvqbsUrIHdaUusk2R+bAIqaQtEbRy8TyX7mVBJm+cXRCFbkl8LXtapieGJg7x7lEiPU1bfoW0vdybDCrS8urBh9ra2nwqlZL0JtNoIdL9/LSTX5WRfng39ZUEhCOhiIeZ8Juo04S8FK4DofBc+msAAreddDn/GNAdII9jjKVHufbwE3csdYp2Zw/wfJXfVL/Vr/FpAlIX/pJBGOKzjSWneS3/ZfJorJMQ2xJeQpvOSnUpJFz714WYdMOZi0E5TJqCxFvurrWRb/REWvNZcOFfFMSt/Uf78Iq8n7WXoKamZrHEGBTz2VCKPAtzjgkuKYKDxJEa1pz4pzYStIA9QZ6XKGCIU/5WcCqO4Zkxg5XXX0kh2min+dvKz+Wd3IXvpk+uFvtE/bGhXN5tFhS31H9KU/ptFveBvXOsaA79N+d9BytMMhhbqcEtTrOyq7ORXE20OqXzKFbLNX9gNbt5QTuKUCBJNIJIexmsj4CUZBUh7mySjXKzQTJYRMe7OtY+lu1EOicOc8wsvGkHsRbNNm2LBr8ZrLI8gathcA5BSrT7W/sxHiXtUe4Nsi4O6hLUNNCUpybvYb6tUrcD1HG2q61L1it1cEY9pN9L5/YW43LZMiyDjK8R/3wykbxCrDwcmyyOJG6XBvWWie/TB/RvefmqzJJ/mjbKbr1QF/1dOy0xzjUOALup8zO5SC4+NjKm85SFFOQ6Xa7N5RDRpF8Hy/tU/RtnC3LL44J+DK+y0Hv0/745vnQPqUrrTXJ9/TB113GpNRE70tHd3n0NGExzbsQijAsePROG86evHBBzHJVQDci5Ecm3E5XTPsaS2q0jdWVWXKqQFmml7nqVbxwQnSur6RQB6TTtBd40t1PkJ8SooHUire30kNchNp0ehxhbe6f3Tr1ovVhpoq2DvhqB724OkBLn/RHThoKqhyLLnSaCX34wJdzKn0K/NzPWnySrLIzb6fRC+i2khWvriEUptwj1ac/mszpr4jjlf4gPB/gZLYBgAuERYzfC97dR415OdiZTjYnGYGJkYpBvr1BP/XuMP8brMu/kcFJE/SRSRVVXa1c/u95HIRgzvLsVSasaY5EW4BOPO/H5q5NXBf/KtRAetyH4Mv8NlqgIG4q18Q5osd+GS43rezWxmroNmpNtqOWmRW6KXDeNeZ9fikPDybD843Qw+LVnQgvPexloQmIiDJosmoAFlZEAXDhVTAhfP03+DdKEJg7/lH4ZBDc1NDV0GTVDlvsMk1STaTdlVJ5yp8lVnvGkVeft5Y02yMgXjswd5QhElj36pnrKTUSBIOmmIhiEWSBSUkFcQf984cqVK1J/WdJDg5xMnVXLBxqoDHVDPergs8xsoJPnXvmJEkw2q4rWL6RW0255Ld5LzaLJJ7gLBsYccicQCOpSCl7xnJJLXbu6pHu/ytjaw1WSpCyTtC7Qx71B0PTpUdr2Lhz/27y7ihfUeW/Z0xkKfjwaj3LgFGcLwPHbrG8gRfJekpQQmtbSCtKkQGejd9f5JLb1Uz/vv4UEJqJQDngHyGL9Io65n5eCtyQ1jSWNw07yfZjrJPtmou91vvc2rsaulRKzHlTPesch1Hxicp7Wj2+7+d31XKbMUjEy8X6chw5+u8jZw5+Z5t4wv3Ik7i0jWedyh6nzh0n/q6STdC3pRuNLURQkGQ3yewsJ77Ikcu5d5uFVxt9PaINgp3Uec0wtJYhx2wOcP8XY3Msoewnp5iXi+6RdA0virQnCI2AIqe8egsGsRYXdD5Gb34LIrUl7vx88K5eDJ13GzGsJ0AgGzCA2aMK04lq8JpdJlRiY+12V287/rgfXbZe4MYHd29sbh2OTAzeddSvVQBwWUIhXm5eYQwXEpXv9U9A74hXeXB+Q5dzNN96TR4b7QSIOsTNzkQiysb/GoEtSRgfI+iF+QvQ1SkzcygFeemUcEJp6lHAo1SjVRVUq3yvF9SBEKgd9A1zfJOuLE+MT5YFO3Uwz+FZAL4VroV3FNikCea/5TvwbhwLISmnK+VG+gZvy40428zacVw7iNQssxkCU4tg0qYX41gflpwksCUi7j5tMrde1nTaV0ulGaTYNpIfdLcctxSnVuby7fZM4iiugbJl3KbOKK7iag40cSycV1oCADlP+Hr7rHA0Rah2gU0uOUk/hApotn4FZw1igpZJE2Z3oRUFYdaQX8uzlepDrw0hjxvwTLphHQqHVKfKYgCD0uzPu4LS19ghR1Jcp+GIh/wv8ZBWkMs0/7rWg3MP7x7iXqXFdZ1vnIPVZAalGkeQ0R45QzjHiSO25V+JSsXxZdgnxqB6mf8lVg0wzgahrA+9UqIlR/J4jvQiCYFvD3/16JtIkXpnjPR09o7RpAThoAdrmGOg6JNJevh9i7DxGGqnBdplMKY60KlRMkQhiP6RwCJWrYZJ4liQ7Rfsu0Dmy9jpiJInAalD9SSriaTwGqHliSfAD14Y0P0l7l5DmcIMQ0XgkGmbeONkkXQKtQx2jtBtYHYbgixGQ086rRFM/bmvwcRZBJfPUVRuAkIwEfM4OY0xCJGvYGhizvvpVwX5jZ21rze8BF3Iv6k9H1qMj3s1E1gQpI6nS4C5dS2WZgcjD+vf6rkFmvgNuM04D6z3ivcKnc/yMTZriZbPZ0WQ0+RZxNSCXiXuCAVg4lF0RCCZ98WoGr/pvky6srIfilQLpNeneI80/gZxewinhuzwXMUoxFhOa8oUYS0jYfDBt0F0hO+lshdBExIQUrhdiYlf8Qc5h1hTyYs9IqT6lq8kPjo18ogxO+dzJwLlOssymHbBSo8iFgs6eMLAsNHljo02b1702dS7Cne9U0iBh0yOlGpo4PPAdcy+aXQFR7Tw37SzAxCQRmiuFUlqe1b7rH0oRbnBNB+mJRJB4gTy0F0T7KuJgHyFZIRil1BpBB/USEWyl3AUgblyA6CP9J9cTQjwiLlo/ENes9St9LgU9yDIMM0h7MebGZgetwVTpY+kKcV7J5/KXKFsbQXcR/yj3XEheyE7qqOMgOrnLflz1pS45pAiNAU4/M6fFydJJZrklgitpcJG4mj9ibMQEKr4gtaaSekXc0pgzkCSdxrtOVRvSd8IBELk2kh7ix1f7UcaKjAEyQF/rWVIpxah/HW3V/iEtYDfrPXFMnjBgyzy9ye9lynsXX2QlIqH8A21khWEbZwH8HIT4R6Rbpfwn+LabslUfWR4KBsq2i/5S+lXWhaQRUJtM+3iG84HxYQ8GV0m3jYIdieSccYl6vsU7eWhdO/d48SBDBDsn/M7JjYsaZ4oGLkgReBZ2OMTJc+KneKvfTgs7QqIQV0aHNjIgdPIc/Y3VCP903SwA3M1em3cmsYYVUYgndc9b5PkzBvcFBmqZq5BKArG5n46TpUWGeOLkNPm1wKy89KeMjLaqiyJWhmI8qcm0QVDnR5yhLT86OHHwlRfX6poLyWxGOea6PGjyiaMri59CkqatAWi8oJuViwdmuJkkhfTr/4Km4MBk7aNdrspPE2d94OBmdsXSRqMGidgzKPVW7aR9hbpeIZ3OlpY6RghnQyi2ceP7wuiX00XBU1epMLRoLMSuYGCqdhHylKWJW4axfFmBeAwsKKNkGGA6QwkIJaIjN+O3NemLKqi32RMziy2OzkRopW4aY7v4GWmS/LWXYRdXrbWovAL8zR33Ghfl2hZemnfF77qQXn7EBFttgtt0fjHeU9RhkJMR5bhQpqAzIDMh2lIoqFMDY0W3sUwDRhM1R7olylwmj3ngqvEtJ+ZaN1IdFDShCgSj8Fx4WainxonJ37SD8zlowHvca3zYIHqt38nl91FiHeVdRQ6F22Jflt+bfHjSlfhS9b1K+pdhBK+MTo9uIJpI96tdXV1XiROHEEl6kfpN87CmmJfmQ2/xZ+paqgdw5rVeFetVvsB5QWiov86y2MW1DoKUoCyVXzmeTPoH9UdnG+LeSnoExq4upu5sAMW9kG8nOZ+c8fJnvD31oKp0y+VsOpBvOfU9iohztxyLzOImZCmi83Y1eXV8Ycm8rlySBkVpgOhlaZCYdyBUrjoJTpzHDIP8PQbyz+UOAIQ4ggVFBoRRzivaEJ3Np/KX5I+VIK59hvTdXHXmbiPvZOJn1CCVZZYzqLgpDmoRh1nKnODTEMPhEuPidDQfvbIZkSBvRotxpqfzn5dIoz0YJU5ciFabw6T7F6e4yoDPRzFKqSh2wy3l6WQ+SU7ya6UjY5WfELUQsJCvkP8iP52dkOfsba92uNZLWIml8cT4u0ywfySO7N0fJs4+foKBQdBbwYD4+jRK268RX2Wrzjq5rJarLFpErJgYtNdHtWKbdZ9l4gdM4LgmsPnmsNgnqw/UFWQp+Gtiq94m8E4cvBDHEnlkoxEsdm8z7JrdNTHaMnoarl5SwiXyk+8wjqY0BhFSe+rMa6pWxDrr8ldD9c/8LzAUqp8QsX7i7iWZSI0lSWE/5t2ricbEdKWOHOeXOXTp2lNzFau+01xbQPjHKFNqLeP+Q3VQMPWoqAr1FALUp0l+/aTtJ84S5eJAyKwdifHQOEIfbqzwxHxVsTBfItZKizzBuAusZcottEXSSOG43YtcNQ91rvg05e0lei/jwswDytgYBA7Vi87l4zRXHad6Dfi+RRkvc/b1u6vp1Sm+lfuyMpORkZEFTH0vM7YhaebkQyF4lStJRSpOcwY59apMtvHedAspNRxVlQBPAra9ApGyU+mUcJ36qERAN6a/z29yEZbXcz5aBhvGz45EElUWx6JqjlRZDr4gLby77NCwEwgFDhaslJN0phhggwyMd+lmDXqpQsQZGY6Y92UQVt6XXxcGyRyRLvPTWcrnGCgXmYiXWP8YYcPeyvj4uAZyORQn7zgcTYounAJxytHdQ0QQkjzEvURfEQ3+G+6znFY3GrgalMRTEFIbJd4lJsi7RpII/HPJIDmCskOEa0Ng7imlCOQMaca5l+Qg1QLzzBzZGeGq9k/zYpYqpGhLPlq1ObEwhygtrsrr5ix5jHPVxJRXWBwimPxkuaT9IfNw8zPoh1fReXs6JvbcwLlM32TfhVRTaoaF1suQzQXKVD00RqSe43+hvbrqv2k7H3kW4n6Xcn7CRJ8jkUw89/C+jXdCvpIq9E8SkYiICOAE3HTOSTnxPqvPW8ms+Jg6YzoIcmInM3GXuZdJc3lik1+CdOqTceC7tJX3WPLfMsjJY19D3zuoOweJtJsyjoJ4j1AvmWXLuq0w5mifCaURU3w2SEgtkXNEju0lvY7jVR+pXWQDjAr7TaS6eRwFUJCbz73NtzGTX+GPV1S7jGJt9RqWRTqxT7u3P8pnrT1UkUkBxroRXaB8yiuNt2HKeAf4/Rh12M+IkqLPDjB/tAhuYlMPESwZXiT5m6S/hSSvBwgyeUxQrg4KM2OM+APc6+TAIeJfhIBqHj1GnI8BowNSj20VKFuftB4nR5Evc32FfPpZSxitT9TP0d7C4u3mGeSZn5O7d+/OeGlvBXQ+SFqZXcuT8UHy2k8y7fHgttQhGzMyfeMjkYpZg8hx7Sf6NWTTrJ+k/bPbSyhiXpDNSR3nOnJjwpEBwNNGDQzLUjwFZGOjdsibnUAorFwyl4HrnkOjPkRni+MVkdBRlTI/1YK29Oni1piGXCoC7yQa6724bk2gK1wvIEWcY7IMViWrpiq5uWJSTftSPnk4mhl2SS9Ntk5Ow9Vo56w6cp6fpBNxm1qwNAiLPLXxTJRfx1kKsUvNorWIReo8zH0/3y+CJN5pH2+/pF3lfNs0FI8unQK5XiB/IcY6Jqq4QdVPM0/lyK//AnlfogazfsxPVyU41XGTgBdUH0dqM0hI7xEf8zvWewqn3GmGK42u4siXebrI0wyIKl1EuJjgYOs/aw2jktOhM4K7YKtjLTvg0KT71qCWZKC8pLbQpilJAVJZvApyeZV08yCwLvpLE1Wb2GTKKcIveMvZlc4zVrvUV5NYfZl+wKoog2H9NMT6It9UR/nPEnIpE4piWu3nECEZq++v3xQOpLlRCIrjIXPixIkF+j6NdcwSpajPxWh0Uk497ZB76jjlFLCjVHkFQi71jsan2l1yNtjJO+09KM0njeHdpBWSTWNKLSJRSSh4hKtA7dLU1HTNiTseJrecjWz6R5tCm7nXeogs+wQrcQ4aE4KF4HqVst9l3Lyan8i/8VHro5mX21+WRZ4olRgP7UYX4RLhHSPXuagbXc/NTxPvLfpCxE5rDRpjZyEGl+klmbK6ftyfoi81tiVty5OzFvNlnaU5YOACjNR/6icxQ5KkhZxfxnDktZrxmjGNKYgAr28a/GvXrs0h9WfjQXwJayXNwyXqNMNV58B3so6heShmozwmqIfgItzgMebEJMlNiCQibW4dol2XYUeWnPT1c1duWpP7FCGIuakgn5tkBglHvZlbXU7TN2wWti/54Lt8kF09ZX31PpV+d9kKyDshRBggcupXw5JBAxO3gYlaj9KnDs6xMFm15Lt5KAxY9l0wkJdQpUhXO4t9wXQulpPLjw16UbJRXiVCUc4Vzja+2LbYwKE3LZi5NDPBZQYqsVeISxNWHK3OupUOWbu7J6jfolQ4TCitMSxpUjLJZtlUNH1lrmAGWy5g440LUm7DRlz2/DW0V8hBk5Ks+CvJgmfgkSH/qayVncSWf6nInZUnS0W2OgK0JWpF24FfLfkJphvz074JkHs2yE6Q3yIIy+i2S/n09vYm8iv5Hgh3B3p2EYiaIhzktM4gIBCKpBapr3whEybkGIvRI3CeacqspR9F9HQEqHTPBQRqGOJCfWjgMpzeUPVY9TjIJC8VFNJSXcyO6cCkFvKR2tGYIpfqpbaw8Ik9r7csHT/1HubbnRCLUpaWNoqxg7uJcltATk1Y1lTRJkOoaKMWlZso1ysiH6ns5GhQxB8ukIVTx0i9v8rzszAHZl2F+DxCTITULeunPH9rdHL0X7nfrM8iuKqpZq9HM2vVXXLHQcdX03YxDDJHlq5e8FulPtrRvUC8BSO55e1hjvkVAQowm23IR/OtnBJZT3/UksYlvojDKg41p2BKxlB5CembgH+qXewV6aUNjfSbFoIz3E9rvwJquWUYCFnESdXXyvsuEol4VZk2F4i45oAIkxgkMVWrxE3R1/MQ/9GsnR2v2LyoqLcaHNRQVUjHMgNuAb5NtLde84NaCg4C7vq5K62/ISCUn2Wmas4LXkvUd5bZM1vdVb0KIyV43NV4If0dh89+7fUqL5asi2ZTrYxkpNm81gFRKdvjwGwym1+a+v5/fAZYrmWG77jAe5hwK+R7D4t4X2TldlvdsXh7vBbrmQ6QH66Bg/lkPnm1f7ZfyON9H2SfDmfWAVdXCwFdYLfu2CaS2vsJDpHd7bt3g5y6WN/KR53oGOcZzFycvrhCI4VsIt113XV+wj8EJ/s/gcB/F8TUJOoOwhQCNbDgXnr6/5zxM99jfUwct9KuR3QmbunPSfaZTbVOJVbt1eq0l26CUYhBVOf+//bupieNII7jOAoEBR+iMXDx0kMPvp8e+nb6lnpv04tpWpvGNDFtmhgfEqWtVpAVAqjY3w+LqZXSJay4i99N1gdYlpnPws7OzH9mlw6Xvm2ltgY14fR2cR+/p1TrzraWWzONVGNR/Q6eIVYhc60jTUvi/pKBebqPBLHP8QlQUAxp3Z2qYO68kD3L1kPUGAbtvW+tZtAL/vNc1Pu783aetLGyVMkr3z5Z/t2UcWf7MT1wb/lW01T2eO94pZluXq59Xzt50ydqTVFUq2qMeaa8PtfqwWauBfhqvltvVY1Mt7+ceqmr7lcqdD7l8/mdYQpY1bTymtwwK3M3jfWrkejh0IutvI56VT2tEe/dGsXvaLLQCWDDMAJuTotXraLb/hkm6WxzLVBpVi6LxWJz+3DbTQujfuESxVpWM7vy7wJi1BNWIvJdLpdTq09WWzq5NzeONvoWjDNzMwqMn/a8Ro5ecfu9CwrfCrW3uJLh0Gt3xgbBWbCr0cn+7IRagiDoyNxNXVF91iK58lcwwIVWpyuS/YXCeDQbvYhdTikohj8kHU137hNlVF/c4VPwcK/wSeEx5ftKHbGXXv9F7hPmYmHRg/T8XXL0UEmr5wfrvcRTvfheH+51OtC0IF9rjZpDocMucTV3uigkwh7FhG93HdGR8EyQfAQeUKCTaWf2dcp8p8JiU+nwjXlu+ij0lztgPYeRxwMst9PtZf3PBdoDHjDeengBCorhzXgFArcEdqu71dKP0mdFhHkMkEN3PedSt1NbPx3Xf6qC5FQd3heKjMqpfb/bj3FrJ/yDQIwFuLKJ8cEhackRUP9NpzBf8KhuzxPlWoT7NNzE5BsnfdDjbxXyu6mosT2HJKvvwc1ZNN0IgSX+Av5AsyCAQAQCutnQyXn6/L1qDnUVAU+1yxWNaTjQ3681PuGj7tlwsrCw0NZ4hig7pyNIObtAYLAANYrBPjyLQGiB3HzuStOieJZXzxLgEOKqBox90YC2dUVQ7TvaqVqtuqZBTSK0KhvGQYCCIg5HgTRMhEC9Xr/K5DLt2dRsoCksfmqU9YFGee9ohPNhrVbrG147ERknExMvcBPDN/E5JYMIjEeg953q/fa7Eko6HnveBQEEEEi8wJ+FR+IzQwYQQAABBBBAAAEEEEAAAQQQQAABBBBAAAEEEEAAAQQQQAABBBBAAAEEEEAAAQQQQAABBBBAAAEEEEAAAQQQQAABBBBAAAEEEEAAAQQQQAABBBBAAAEEEEAAAQQQQAABBBBAAAEEEEAAAQQQQAABBBBAAAEEEEAAAQQQQAABBBBAAAEEEEAAAQQQQAABBBBAAAEEEEAAAQQQQAABBBBAAAEEEIhE4Bf0C+w50zoHLgAAAABJRU5ErkJggg==;" parent="1" vertex="1">
                    <mxGeometry x="289.99999999999994" y="220" width="129.17" height="40" as="geometry"/>
                </mxCell>
                <mxCell id="5" style="edgeStyle=none;html=1;fontFamily=Fira Sans Light;fontSource=https%3A%2F%2Ffonts.googleapis.com%2Fcss%3Ffamily%3DFira%2BSans%2BLight;fontSize=14;fontColor=#000000;labelBackgroundColor=none;strokeColor=#000000;strokeWidth=2;" parent="1" source="4" target="3" edge="1">
                    <mxGeometry relative="1" as="geometry"/>
                </mxCell>
                <mxCell id="4" value="GitHub Actions" style="shape=image;verticalLabelPosition=bottom;labelBackgroundColor=none;verticalAlign=top;aspect=fixed;imageAspect=0;image=data:image/png,iVBORw0KGgoAAAANSUhEUgAAAJwAAACcCAYAAACKuMJNAAAAAXNSR0IArs4c6QAAAHhlWElmTU0AKgAAAAgABAEaAAUAAAABAAAAPgEbAAUAAAABAAAARgEoAAMAAAABAAIAAIdpAAQAAAABAAAATgAAAAAAAACQAAAAAQAAAJAAAAABAAOgAQADAAAAAQABAACgAgAEAAAAAQAAAJygAwAEAAAAAQAAAJwAAAAAvVo3eQAAAAlwSFlzAAAWJQAAFiUBSVIk8AAAQABJREFUeAHtHQdgFNVyy9XcXXrvCb1J76D0XlQEUQQUFAEBAek1Kh2lgwKKIO0DivQmJfTeCR3SE9J7ru/+eZsc3u3ulSSXgHhPw+2+MjNvdnbevHnz3uJYOabAvkukdP1xTvrEU7665IfNpW/1b0BI3KpiOBaK05gfoHZi0OPwL43l0RiWgRPYc1XMxfu61Ie3Rb6NzuHV66TRR9cpk/Z/WViOpDpAVxAH0KO2dxJ4D9rfWFKlbRMqL6WNwC20BeFEeINAYbQeUFHwC3/o3iQVUwICh2EkhjG/cEmpsQxtZvQFUuZxElerrsTO9bkM2QiSI/0LOWBXgfMfdW2k0K/OIFqvq0RInDxxgM4rXCVhFMB4KXxafQZOU0/UCVc2Jf/U6ueSgHHUfT04YBeB8xn698eSah2WAzBPpMHKPSGq9VRu4b1do1O39d8Gd7pyx+lAYBcOlEXgCP9v7rcXugQtJBXy+pQG6GEPk3Yh0QwQoJwQY5g2LfkKhRNTE+f4noGaDsEzw67XJRuspZInrzYRvl6fHVgrcPH/nhCJAmmt7TDQ8IgLQFhERb/o2vCHoDBvgI2CS4N4kTJFACmQD5A3+byygNRdVcZcybWdGkfNiuZAiTWc5wfr28jqDtiKC6X+thKLI7GGPxppQQy7q8tJuFV4Z3s0RkiyMBzmq5BoTb6PS9spoXBZC/7eQkLITDBKMj2gscTss/N6ZB+afgtaO9JryIGSCBzhP/5+X5FPDWQzERaHTwQVxAgmD9kYSabQ6rztGRs77imIvnLbVh441ejZwKXNpPfEoa160TptME4KXRn1Z0n7AV5ciGHqmJsfJa1osKOIClsxOupVBAdsFTiw157MEPtX/hYNY+aEjRkuYajUpqfcxsUuewof7d2XvqX/jbJ2xKvXivrSJl++i+lVvUi5cz1LNDC4QJvqUp9/l7C40ndwXxIdWVZSHe2tcMAWgSNDvstfh4tln4Ggma2PhkB9bkayLv3xN7qstJOp23unWMFd4mLf0Te8cJG4k8ij+gpCTLjTWqTuzJFEY9rUh3MTl9ScUVzJkm4sMS2OBqXjgLmnZYBG+o+LmijyqznfsruDpmi9dlvsdPHn0FBtaFyOv4TfiPNrJeEtPmecyWYQERIMK3x0cfaLn1ogTedIrwEHLApcwMSng0R+lTYVG/scctFkgNJoopXPT4xP/bXbHk6Fcs7w+fJkb2lYm6U4iYeZETyakGK4KvbBqKQlNVeXMzkO8DZwAJwU/Mmrz2/dhJ6VfjPr8oCWtFobmXN1Q7tXIWyI6pS17fZStKaDNvXpKRAsNLqyh02cUmKY0Kv6ooDJz7rz99SRW5Ec4NVw7r1/DFI0HXMJJwS8rg+k2cBwPx0zFW8LxLIfckXSX4Rr2FphgHOb9eKAqoNh7ZWbUC9p7DFJYq2fTcRTuRUcORXFAR4N11CoqD9sEU6aETak2XT0MRC2NkDkqxc2xKl1X2oTD28fBqsOu9AtJwGVsCpRVZMR9y2nzJFRoRzgaDi/4Wc6i8NaHwRRAj3GSkjYNNrjsQcH9MIu7oLBynJybTMl1K3TnNY0SQaCe5eE/2KSV71zXhV7Jtpyy9KVOjcf6u7W8+d9hEDQkgkaYIHBkcsmM6F7wpygQ6wix20FcYAjcCFz1U8Ioagy3wOjKV1SzvGIFtkn58ZaoA/BpP3HP4gQeoZ/ieNCd4yAR83kYmpao8yg9Mod8REeE6Ge3X1kzn1/cXdvNPQpwHbj6F+GBjo1ZgoRCOUlWJCD2o5kFw6YDKl+Iy4MI534hQ1hK3iwe7gVYUPVaL8Rl36XBFefjRMiX1i6EjEPvigGToyWxAQy93GhC+m7vgN21sQiaBMaEICypNxdn2cWnF7WzhDSZAKLMQBwz5CF9EyTfMdNhXHA+GGLxKHNF/IZ3ThEZdCq3DXpmz/cb42ygAmP5kmrNh0IcMzad8iFAbFyNaQN+kYFqWIX+U1PCrEGtyTlaYfG3dJlxs5j1nC5DQlMq+rj+cmfKOLYkSqYAy8FLnBq4lgQEVc2fvTQdOkvnsXu7juJXca+d+74fRWBW9gQRmgtrEqgdmjIRi4XgUfIN2KFz6mAr66MYMMry33Bi4s/65WFaGjlJFwoqSkNf7sNp8CRUe4cMAiclJS59eXFBjVoZWYEdudYAW+5UaZb26lvwyK7u1GW1csihy0RJgxqvAaG2ZuYTOZrtZENFTJ/+ygeFzn9BlU5IaFouKVVOQMrjz4EutuRKpIDjMD5jb7cCLRbOAcxGNm6nMw7qqeXTnLKeDJwNBslMYjX4CSk7/Rmlz0N1XGsXsjUjHj/r65+FfzxATdDdml/Y6fgPwDObHZ7JORC70pdc5XuHI3Oruu4ty8HkMDhIrfwZoREytVMNEbhUteD6fuGJtmEluIXKQhTytEk356HUbonyDVhNoEuwoVigbhSo1VY1bf3BM3T9TJb17YCjSb++moUssROTLydOvkTdr7jvnw5QPgM/N1Jr85vy4eGBv9F7rFpKK6sbInSajL2frVVIBM0UsXcXoIW1flFE/JhqoHWbgmp4m0SJ7cHzUjdjnnVkpeWgKRVjRbw4UI4JNW7DS8tXEe70nGAIOsOlKKtfHx+N4wgk7NPLbQ5aNISCbRQhj8dg+cmr6j3TcHtQ81AsJ5AfbMzWaYEx5wELl79Qyfci3P/aHNHrO9OrjPaEtKiskJKpTvEnrGi/pISUWXM2Zmr2a3DdNQoJQcIzcODIYQT5sJ+9GjIgc3IG0oJ12KzlN+6X475sXYDSlu4gFJmvbA0zBZHgbi5NP3kWEB4wy0Bkx/VtQicp1AV9ddWXhwg7u7NJnXkaeLIKicOEHT6sxbceRyMeCBwOUfH7y0nvBiWFpUfN1M2TR17sZMuO20Xr0AYkKNhVoVhIs/w/gLn8OOhC+iFhiJbfp2qd7kOUSOg00wT0nLylqNbmuY67sqTA4S86ZiikG1jLDA7peAB50cdvm+cXR7XKRu7343/zrtf/r39H4KtZXG5iXEYkwJPoGNSyHzqiXevZT620ESLFTlQ7zHHlkPDqti5vi0wHHXswwECHkJV9ruPdsxD/i37oLANStqGXjtjJuNoo8wOmtYrYZuOxQRBl5WljYftdn33N6uujZh13Qo1qfdiOQIHGGiMDrCIyFFoVw4QIFv+NNt0h+FUHXf5rl0x2QasEISuP5Ue/R6mpy8yQZXm2oF2IqTSFtLAGv2gCnpFzKenh1WkxD2ZtxKlg96CDetIFcIBpEdCOBMGeDKalDsJFUIBD5L4H6sc1bjjHZS3j44ATUeZ1Xbwooj8G3wKAQDWZq86TCjN50GF0TRFYp41ik5x4qvgyLMrB5DAcR8WUgWEGNk9rywlfYkXJm/o8nPmiW+r6ZV5l4EQjn2HbDpCIGze0M+KhgOTlBS7ZPJ2hqIFcrdwq8Myb1tHZok5YNZSImiKdwQqMYYyNsg9GvE0fkHNPqDMEvnECpdimCqZr4SFmCTMrIPAeIwTbKOC1dhxay8OCJhHxcNuimamDvbCU2o4QVPjPiNl3lMAQCh76Ee0g7tDK/HjlHDxqZVOmASkk51g442GKuBoT3Y1x719OCCACUMmiJa7ySNDAkhrg+yDotRQPCB65E9YIXiH2WnPAwatHqiTH568fvUux8fGqk7oKZVMgPEJHKFTv7jvOACHxbDyukWz1DT2gIQesKLZ5yHlhdQSXBQiHjjx8dfgZ0uFMCKzwoZg0Bo9RujV67Bd/cCas5ACm4spZY4XjyKH4ZTUY/kvHAJngX32LBKAlngMAKsZPwzkJgEv/Fv2RGQLLN9P9/YVVeowkZQ4NUarAMXLWrxNkXajtKrtCXuWWd0Q41yrL2yHNuNvw4lCQMC3uZAXryOzbBwQ5F7deN+l+ac9TR4u44HHAgE08lGBvivfpGg/1cO9zawtuEDYFgIGxCa08KBG0SZ6FbU+dqb8Kyi2an/JW4+TCQR0mInZgOAy0yL8CQ8KR1Y5cYAgCOE1Pj8X0nJubSZ2KSe8DFgIjZL5fXHiPY/O854REkkXDCfFHKEwJgCIomn6ecbxJR1ip5DDoMiqsKHmdH6cNyHC/dmw0bSIUuVeM0bhuC5fDhCCgBZXeTUKWEWy5qM/Ki/0gVPj3xEFddglrd1uNwiCCy8NxciZhX0cy9TlJn4Xu/b9hjkHvjlRIrqynnflnXPDsJy2/YOSwSoRYkdlNgcE4sCwHNjM8gSGlyrGGgAJgMAlsAM0sMuwKsbEGMQ8oiQIW6D/maKwD3EBIUdnf1hKSNh0aUk7hG7+MxPmB5Vq+BMFNf+c4tGFaBOP8tHf5y3hd5TZlwNEzOpuSk3irfPICOckinb2/vRAWcO8ASyOaXQqvfdnhzuHLKCzaJwYihOEnB00YIIfHUxD07n63JwP4+cH9H8+qXS2Fhzj2pCUi0PYuJgQc4zeY4LTcVPuHBBgTw+rBT57T4Ir5FMONgIsq6qd0OL4X/BnPJHlVLWUATu5pN4Dd6wTKNzaMEOnBUjM7FOtyaUFgt1xU8nxADfLEmxrZW5d5s9lTlhnVUT7HLKPfP8LK9txW84cYJa2Cu7+cZXWFMbx4cIxvENQRCY66Nl6wjEVcmdwEkkqYMGyDePAtSBs6Bh8Sq2O1MRc7BE3hfwM4JRJ2Jy7/NAYtGQ7tnZDs1MI6EwTtBpxmkOrI6NcOcAIXMb2jx/CEQy88W+ESOABYeBD4MHBY7KSSOwB6EHu/lUQMkuTAjRLBug65aMLg+AUzXbJv7Q5awWTTcVuLb6cDMM5Z88WGk41L+5uSYtcA2GmjlSRHGAEDiHMu/HrcnjzOfoHaSWRd/g433dX1rBGWMxEPJLWq+Ot1XtZXoRdpc1O2pexrmVA8s8tN4Prn0PDy/oluAj5NqstLpKjSQ8nURo6n/Sr8ycWGVHuPkYO8v94xkuBy9j1xUld3osr/JMH2Dhcp+8fwCs0Y7WUcnS5LyYwMCzpQyhDw6c+P+MSpVMOSpwX0Dv/2QV7HhQoBH/d96DJ+AMrKe3ZuEn4VUsdcZSVDwdeChwCn31m6WdFszdTZGg4JJ19a4R8m7vOtIR7l7gw9KAy6kB3KNHzwWJONYJd+OqU+PHZMWd6xM1w2sWFUrYccLssIOVuLRmbkQOKpjWJ11dAdrGXhlPBkVGOHODooYCxd9aKguoMM3O2r5rSqb6ImyHdbI0mp85z/Tybj1qLi+XtmMMIUQMCxksa/zt2WfUxWMqjaGswSlPuO+xYX2m1jjv56GfOFNHr4fROQefSwHa0KTsHOALn9839EJFHpXM4KQrkWHSgD6nC7AxV4o1eqevbX7ARvUJWq1slTEvQBY8PPIQ25bZQ7jvmWluJf8ODgIMbh4RoV+Xnx81ShEJ5Bvw50ivggMmQivAn/1gzVpt0axEc8wADKSuhRX2Zq4c0uPlf7n03NWeVmrvNK4g6dAuE7TZUKDdh8+z/ayOxb92tMPHhChsgRtpNk/FoCFw6hM3ck6qAfI6GM+AMnU8fBXdFJ46WK64AAlmovr+734st/ZBGeaXJ99N9jcU1el6GoZu/PyBs+rzUjfG7232JRUU5bLdX+LT4H1ARQWTIPN1DQkhWNutDA0evXpU9Mn6221ZoUvEPMoIW+GffHiQOrPsr/wQBqIIeQkRIVOH1nzul75uc9Ap57UANHOAMqUZc0SsfHetCKQui+WabxfUkpNR1Q/DsrPXe766oZNS23C+lDQcFh4j0m0R+5oWt2MWTCj7GjxzCVu6PxCYEljQcA8D3i+ONxcEtD8Axpd5mIQIUWq9P1mVGL0r8ocoys/XsVBA6TzMWZrszcYHAdC+GMXz0KlFYrirxcvMXK5vdNy5yXL86DlgVOEQamiA41x9wFL59qjBn06F6TNyaFruTd239GNfWX1yC47nQMGuPlQPcZzHtpLuxvalTlU4QBOBRyewwjwgpSmnazJheiYvCLhkyHL+vngM2CRwi0+PjrU3kNfv8TkjF1fh8XC+7ApoFfV5cm5N3G84G3oq7h1yKn4Tfg/KSL8QH13Hz/2h/DQynWopcwz6Cox/qo4MELQkbEz+Xnf4YE8m/iJ8hPfOSLsfFa8EBmwUOUes39GCIKKT1z4STootZI93QLRA8xtGqw7JodU4cLnR+hovxi6m/97+jz45+ooq9gpayjBf6xZKQJv7ikJZVnN+eVIdQ+LbA1AWVMFIYTIhEbijknRP1YcBV/IvOItGmJO7XxZwenbxtQCyr2HH7GnCgRAJnoDdkrm4FzF5H84YiGSrx/RYFVRaX8C3So4iUov9hIC4pbZQ2J3ZB4r6J32JRu8owY+5LOrf0bSyt3q27tGoXCG/CqgHB/vCH1pERTdkg+9G4Xnun4Pb2s2n3/zyI3duXAvn/uuTf5hvPQplfd0Xdj9qQLv714KUOhA6i49BQkBl6QM8hNP+pNuHm1dw724/lnV6MoqP5AtBs7ntJH+pLwD5DjnSQVum0BJar6jCZ9rDUXkK38aJoYgAfm1PfL7i7Y3L6jsEHbGxpUs1z1A1/qcipEYXRgwS+1d8lJRjJaHBwfTMvlXHfEMfgD2lvZvYO1xAm/1h5b/cmp6qdD0ZvGPUIi9n4uoY9SUPnaqqpU6K6Cr2qfCZwljHbClBfX/aT1VfUT3T6DBMYq4LP4764C5vTBZtw19BbCTOcEk0YacNNqQUOwXYbttNF5tl8kEAR8A3hhIegQwztMkWwRjh64GAnUgXqaDj9aGnc0sBNWGZmaTYz+4TM04+itQV9SLmiBqKdsQ+NmW6NFlQOD4WAqDv4IEoB+PxO0VLn9fGT8X22NK2oOgETn/UghJKhpLN/J4jUcUJ2eClGqH9eMjUVhWlUezIuLV+ef3hamq39KJPAGZCELqVdlY/PfuAU2no+DDyejHYo6UMzALP0iwQNHiwwK0sVd2m6LrjylvTJXnmWmpgrC56V+SUhUXwLxy95g8biiQQ019JKPuIojSn1hRlnso/MHpB3ZfWrXkpTwBG1u0C6YM8vTOfs9VyK+omgZSsf7J+YsqnXr1Y4wxTbReCMEXl/vH2g9K3+43BKFw6bZWSwWaYohq40HTVQR2NaWq8tgI3SMerYSz8kr2m+1RhnSa4Dhx5xx/3qLhG4+Q62ONsuCVCeumgIAg2izL+2vmv6zi/O2CuwlAeV2SzfYSe7S8Pb7oHP5wnKZnmZRcEUINOCKizck3X406G5F3fxH4tWDMLwSC1DLEWposkXVV27LOyIC0WNaVVeNVLh2wDAwEDISkCBIQjcsHe0+MNwSdrM5zEChe9jUux0NXVTt9NlPXM4bKGmiTb7xXqRb9Bb1rYnMlQiOw3ZMOjPkNCLA2bzS5vHkM/3W9w3XWr8rPj/zVpcgbYdETwzeTYu8ZgFLynSuJYTkgJEKzu8FvUThXBYa4+aAxq9UnlNGR05LO3XbjfNIUSoyj0FfHG8qqhS+4MwB63MJh6CAAq0CVd/hnNCXhBieZbAPTwOl7tngILIS9vQITPv4Qm7DEkBEenthBKPzSBA/hZtl2IhYYbuAixBmxkdpX1x+yGNC7UEridwqbunOKh5NXCCN0VHTljzCxqYC3DWJC4KHwX3Njw+Q6vS/YbM123DCbJoE7sFbEgLM7awEmiCM50L7+yMAv9lEnNHa51EPm+FCDzCGoHN54t4xowIVuDRGnVa7vXtvTJ3f8brcK8Qgau0mPaGYKdI6BRjmBuzEWaYWenb+7criNrDu4nHuG5prwMjUisLJF6XAL+HxcddZMmlqZ6dXpV3bOL6gpirLyzgxL0/WNtRWnfAZFwoawP1jPUgpxlyhivhKzzowyicQjtmwL7fXfBSfWDTEIpjR7N2ffZjzrWNJ4EEbjhaMV2eLYf4i+p89oUorNUI4J/1k+MpXU7evb86ZWzrd4XdtVcucECADh7V+OhJ+Eo2cfa4V7y3ysOj6Vdor0Y47wpFMQconeYeLhD9FDsZX1NSvJLgxuG+I6/MhHH2PYwkXPgfNo3BTB5Txz8dn7i4ytKS4rClfvAc5SxCIPnWXF3GrtRjObRec7DwybGItI09S3ySQdC0xCGE1G0MLpbWZV5ePo0Hrx6lUd8tuL2ja8auwYnG9Fh8K40rltc1DLMCfUFWB6z5ON7AybLida074C+wTfiFDYDTcOaEPidlRu7VNa1LI2yIPlXc1ecxU/DPwEfVg9bT19EGIdCmrEeBg2ENm5E8Ky8OnJ70Hmpnz+Q7/O82cNbdVMDLm9DwD/ZrJDzwHrAVc0BphA0Bjp8XsCHzypoOVGHWVLjV8Op1GH5JqbiOrNZ7nJf3lQsceiyExLVHcIeJNXk5VYbM0LnaCFLi2srsMhzYMNrnkS3j5/nOzd4zLrsMqJimScvrnWsyBW+qfH7zdxA6/kdPgw4UOX3r3n9DUFnxGbXHJcHtNuJCoYQt5qgO0my67NxNhbk3ez+fgp8zaleqy7z9E9LjItwXFD4/3QPTanjdUsjeI50VvXyGHvnaGMmrFzjEEBFOUBrldHRpTFxZrv2HnKwGQ8dgXpiABdZt8tOPTq6ZZPveDJvI2YXj+uSVDQark57/bK43pMKljjS8yyegX+3SX78xN78npATn/BSGYMBAKQv/jItw+TRzZbfSOMfN9jt1bZu/c29u7UJT2gK+vqIJlbRq56VOraf5GYC8FgKH3gaRb/h7/pOiPzUQVqbfiAiC9A4fSMicQvng0Dpdvjb9cb/844se8JXbIy/xxNhvaI3qCO+DgP4KXfym+7aehtYty5RcWo0IFwfUm8589p0FqWgGmnk0dpbsQ1aR3W4z/xhyQfXw2LsAUMPXV9C4uFfX7xYaEL4WAoeIQQwTuYeudHtvbSsDcaX99YzrICMV/mPMDKVgvRPLE36sdri08G1qd31/ofrC0kHAcG5YFpgR4HaRiTrNLPOM1aXzD7P5hlFkW8ERZc9yHh9B7hGzM1Cb+mKlUsrvPY7r8l98w/gs+eriRLugueraqOi1EbhiOmWKBoO2uQ/YUyZ7Tp91ZwAhE3KDRdEARtMJsVPJGcX4yvhD421gX0WtCFoEX8Nhu02xF7DGqHxyeDAziWBhQsMNIZJOZmWX6FZSoxsMo/rW5hrpk++Oztk2gCvw5hpYyodv1TZcSwvRH4ZFcOQm78ZfW/WF+bCiwgVCCPAATJnbEZVwGnKrV2wOKZUEyau03eXz+d/NSovZpfmIKXxDDFpgz7+xZWBp4bLaEYFTEr+IFqgvF0qwjBCB6pjv53+3YdtlKb9226/PyT3C8eIDMKQRvD7ePpQF1+Zb70/3vU1KFNzJBzx0+Jb3Ye3938/YDMxCxZCF6hoBYY22ZuRgcRlZWHTgNx/Mdn13qatxk5yDI7MwTf4qeKHBYOAmSpPT02fgUdlrJ3BoGCTlzjXFgY0PBM/TTuKSbiXH078azMq43w8D/aNJT7yQvmvQaSsQbCoOmadZLnAPWEuIxQ3A9JfDSXptJWHv7A0cebESG4AmJ2Ye37CH/IKyuv0HsOvbeC/UpzxuDqFDHM2KUZSayo7fkXLsB+MAVxvBmlYLnJ7cBKeEh0XeYR9CH3xBgwUIA2rNcq736XrTmhgWN9dvF6wZx7DzUT+FnpXaivxquLx2AoeIRUJHSFw8YN1/fuDM1Btub48rirlj94TnPnR8bG8+iwVpGCo3cTFPkxJnwdLRZjhkcRSzpgrMRMLE0OwkdFam3kczY5NEKV880udlXOcbbmitOhxTKDxMGthwEzw/Wy7wqtaEb5kOjg7NT1xau8xntviMOBsOa9l/QcxjCGMPQz+ZvqLwVlLcBvxsddmkqp5FrjWsjRuXoZWWwrgzTV+9wKExn2fcLyaWECq86ru9v+QOLNmc9Bm8t1flFXSgS6spbljlykXu1aLW/0AhBO2YcHTj3kKpvlCfLQlscsM4uxTXgmDQbLBO+QmfxmLgUZQLG27Kz53hIyeCy7z9xAmFd9+/qrLbWLsXClyE8I2wOhw60BOldGfhX3Azlz4hYZOEtrqM1p45OAAsuLFJSiRxYmN4sa7tr3z9RC+G1L9hW646ZkMoz3sQBNhe+JTWKuWkVM4sELPRMYvGENhJkFhbWb1ebXVKLEfe7LO7CuHIOEKsSC+q/9KfpQIbAmw/lgQjgcuOu519YR2vk5KBofD3xPKSiuGxqSi6D5mrWgSabQzfA2BqAB5C7ss7+8WlLndxCtOBkjDhOURzKJyqtR8LMWsdAa7NCgDWpl1Ak4jYFhNy8uad/Wkvfw+YXBn8ixiUb65OwMyE5kJZwG6I3vHk06BMO1Karby5/Q4PjGygKRp6EmayxIdMJZ/q9U06z9O4fLPQA8Lxy/nPz6xzqtoBDGuR1NzDRHZA8Vqoi9C7aitEGOIaO/ExCNWDfbUxOef2c2wa9/dXNHNuMnoNptd4QjBmIU1pvoudLt3GhgvD6BbQbAPM0YeGbE16yvY0IuMUuy2618SceyoKbFoIm4KcTcppTAgPp58hNMukzMINM7rxmefQWXXcuas8TSUhczUrobgjjdMkjovOx0zFkcsEgXqZ/Cc+aSCQBewE5vIqAFQR+ffyL276DC45/ETlutRHF4T+1cKMnwUadcDZHmzzG4UAlUsiCCxtU/czBdfW18MoOskmHKCeGfsJfhkNaPRrrj0uksHSVZTJI3LpNCPMpdXoi8Dc+hgpCoJpI0w4JBvhTOP+AAfJKZOC5+s2WhI2VEmvVp+hDs/6HNv4Gehjbso5uziVorTI+uEmI/rZ/TF3b6I9jCAiwc2PO5lglIUuBcFwth8sfX0OAh+CE6JAeEE+hI/n3UJlhrq+w0+FCj0qHwMY3JOzDJVgjVj17MI76buGnDZksX9VsWefc3xyRWL9GghcMbXpf416HDOVCKExagnEyGUijWG3BA+BEDujSFSTt9mtw/c/MhMM41wcE5JSty0gdMg7jwfP1SwjCHKwact/KEMGMpyZdzRuuqRT0vV1Zu0mrUalgUh29KqUf8rKMvm4cugPdGUIp+9mLKRotACheAs+oncmYNBuD78pTxuKw9pcA9PFfAgX+oxBxtN3k1e3PGOpEzQh4l3qQm1evYYzpVwHnzT6Rpfzop3mxZOf0G6h4sgL01olvQOBovQaiJcwTaDmQ4zVPlNaJHwkKXHbGDpXfRi+OG3WZkNDiz4/b7Py9oYPoC2slZhPr/QjwBQmgb5yJjNFQoc3F1TvfUzsWukQvJcexWYLtyNQqM1++nH8oirWNwdRaADlSejF58l+5VmJCwNvJ8qrjMq8stRD9ezSt0BQDqOigeDSJlyThxhu0l8AdwYZ2ZxUxC4xDLOdQbPxY4VcfaFyr/Le5pFpu74ya4AbYIukctAcFOjD8k+y0Ma+Jlj0WDYMk7G8PYG+wr4TFP7vbU6Lo0FX8/Rky8SFVQ+awDV3o1cFc2AhLsJZL/YcuMyhL11+BE5BaAPa+xcBACKkdfo29xu0szPMzlrCIqE/pteJaVoPOuafBOe5UhAiHYDjpgMykh9KlRfg89ZAacqdzS8N3ZjJ+JSQuepOsLO/ptk3+x/w/1yBkNIa7Qk4nxgNuxY1m6GRxye7QmD45oYPgU0EwQQZYAQWgv+MX7gNQIx+cZi34xInf+NhEhUj3SIIfac2ZhStDJODmMDJsSsFbsGLoIoJz4xAci+BGpqi83VJd3qVJKrGucWX9Ri/nTFE1DMCi399Bc6YWLhW3t118flE/GJxNokp/N0kfjVhxofccUVJ9fhgHpysdAKmpKaOYngIhNynuvT9HxWYkcBBK3X6L93aeXy67w/SyamVLUKHAzoqL39b7IY6Q1H7YtTWf9SaqqAxOUGm4BYqUMdfmZh95JtITORhooEtAXWu95GfrMmAcxyTAGwzRYtvOuRE/nDcuH3CwpDl/uPuacUBtVYz/URvoZUEwltA50Z/lLik3ikrVU2L9VhT9quDRihdZlLUv0bgTHsEugJ8Zioevxn4tS4Co0wdokjgpNJq2pwML4Bjsk+hIPpECr6mYx+PMZEnoG1tzlBghBjpTX1u3iZlyvVRWEwM72zUqPo/lz4+Ml12Yn2BVxgaVkyTXpubdXbZOXXMpRjTAst3gaMO5OlUWCIMkwHGNCNhEjj7oHChKWwISUtrr/EeuPeFrH6vP1HwgMUEfdXEXumavLLpWYv1WIXy6j3fgZdSQLNeRcQ7VfSpcza/USy4r+1t+rb+h/jsMpSnib81kI/w/JQLqbHTRU1oPfWc184pbkSp1EfifntreNqatlZtNmM84V/HBgg8w1pzhA0q4QJxtjpq11Pj+rZcP/2lc6Em/tp1jvsBNdbr/J1bjGzMByd1c+/d6meXh0I/TVxEL+uiYRSUke7xsWYlFTYEw3PIvrF8X25EZVL3qiffOIHLu7XjAN/QiD7w5lSzx9fQb+Rp50vK2GlkfVpdeN7UAgShAFNfX5C+LXaGpHeJNFsxFl1hdh+Y0bpzkMLD1SnTT3Dybcm4c6xA4F3jAu98UCCUu3Zb8rE5MEmrm23QpT2ZAOWUyQuGhE2vf6FLutklYV3ny+bam8sPHHOpCuzp6MR5sQCuPk8ZS3hVSXzjBA6YodelP9nOWUCG1xa0gQiOh11mjmGQn5u+f+IH4Oo4hDadoOO/kFtGk/RkTvz3XoOg3NpAxAdaQSh8vuUbwhCN2ccifuJrZEueNvXZBVqjQf5FdoJ5E9k3dL4ylF1guE/4oeoK5ZNjA+BeQ8CKKPoDx3tKwZXfeiSuaFCql4D0qjMOEHPWV9HoQhWmH4jZP7kAZK/8k9l9qSDusNyxNXoy/ok9qfD96I9aTk373GMO12EDhg/RFET92SFtS1+Ltolrt7kw09JVIzHyQuaxGfFsMLbewxrpERD0zmzjHg2FsGHseuwUvJGtsPjqwXLVVVjf5cBAwgy+zJ8TF1cdwdfOkOfTabFMTavag27Lyf571mlDfkl/QxbRDcCtfRLacfx9kKcE0/XDuCn4/n/rpMEiPwLa9Hmclq4+SorEnTnDKywiOtXovUzR84fOaPeROUDZh6ajZR/0V+rkN+rGcBiyOMKGACKByN0zaVypgRc3pHUFK3CB6+/GEwdUhBb1xYFVhgd8deVU4uomO83hSTk2EbmJ9pkrtyXfs9evCn3uiyVCV18XjjsEANDq/NtxsxVIGE0dobYA/zfUuf4lrqWVGWtAq7DmSkXUw5piA7cWY1eVZ18CxtxoLw6ov5AtCAgno33Skw9lRS46V1Ya4ma7bQYYt/kmD+j8FGFw49+DIrJ6lRWPpfayxv1/F3r4vsMnbIguVco9ZMYgwX4zBQ51LH5OwCFMq45E15wE+p0gyQ9DF1BHOGV2yPAfebqF0K/ePuAu+Am5CWZx+ZjYbZG9TlTKO7eqP3ui8xIrjYnh0wa/Bc1K6fwyz34X4pDvlYdhzHiX7QZBKJDtBi/9mZQ1zXcYUL6JkwZD33R5N9ePBdc7fwwcCB1O4J1D5mmvu3eaE2RoVKZfmiZ8R178VFz57fMgTE582g3Bp5U5WxJmSUttL7FpzNg/+qEm+elss0IHB9GTMu/D/iMvfFSr707bVxrYiIzu/acnBgXPzoDJlaQLbz9hdgAarxBOJOht1OzN1XCokxl/jn4IX2j6ivHL8UyPkCFPCAUN5K3HXwyaoxoOTXg1kjHDzF37jDjXDBb7/ycNb/Yb34wUtUMCQeWn3oz736CS79Uwh7g4X+APsdBa+qyJm8PQBmbokHBx1ebbcqu23Bg0PYkzyTBUtfYL+2DdgqYmjBA6+18gXdzbcWxkBhMIm1alUyffQJPBbGOYb7KGY/oZN0O+WZNwewKym/gSYhghlgaQAvHq4O/zzwdNS54J9WwWPI/3fmoXOk+3VxLQaD8uFvfls2MQXmZ40WPJhXc29sAe7ePXunwE2pgXMw7Pzoz8Dn0qPpW3CQgdDWsjAhf/jwiZ91GYPf8lbzikLW9d/kzXgLH3p7t1W36adAlYA+9voLkXq6g5tSh5RcM9bFA87z27StnvK9otwkOxMGBawnKhSwA6bspyKuYIrAWeVz84uEcdffYSIVdEZzSanhwas1GUmxxfCVOra4tr924Ppya9B45XT5tg0lhaQdLllmkrmj2xTEDZSsV1u1X1/fjgA3A3WVcmRX3N0uUk/Fl4e+cxXKu+S5PypMzDY3Lduy4MpCl1GOkc1ExWr38fiJhuynHo8pEKMCGG4n8QZvaRmWK+bPvmvQYChzqEB81IW03KPb+EYYewJiRodsVoRfTYjF9LJLBIW4BmZLSZFQFmnJ567KmuIHVQ4vc+FxEh5Z3kbSfX8ujw/R6YjVe2KiTQNzTUvzQ72H0FswO5WNh+RE4fitrpQdg2gLAN45QXZ1h/C8y1/Pfl0/FzvEZS6uwh8PbnWzCwmZ4hBqPN1Mi1gI7ZevmH7mFoQg/BmtAi770uI3E/SWDdKkrYEPH5pxZGqR7u6QRbdo7y7fpnOmj4B7080BfUJ96+Ag+sChtIEa3TKnV56SMsCRtC+V8SOIbF4LfapI493wgOQb7J57syPIcy/aK3HeLcNDH3v6afXfjw+SS8XIdRPlpTNveLhji4bqpnV8YwmtpYc/E1KGUeA1uPPcyKnF43YY7Xemtg3siVBmudTvqp1SOo0yBkgX4aGBxfwwYZtBGZtKaxLMItfqC0XlcAgaB38y6t+Cxj/4SHFtuUdyGOU0kYttKnz5qDksbDf4H4zsYwdMqZfloxBSyShvpKg/VK0ama2NuLYO11icX6RoXlJPdGGODyNbHhTIkqvpO3GO7t0X3lQFqV3Q2XebaBr9AQyDZjpvvWHgqMD8zQDFykCtUxlDL3hC4t6o/ktW2P8CJ7xZlB36s6YXrVhwScZkQoFKGIHMYOBfPBYoL+GWxaMDM0usyY86Tc53DanmFbCq9vSbbYllX4nxc4Az/Q4SzOzcYGaJ8caUV61e4tcAlsScjAPcL3MIBrjEDqsHuq2MvHCVJ0gFaEPE6a6wEKhdkHZgD7Ov4SAZMS/EmssIYy4UZ3Wb0PO4Ew1WCGRr4XDF4qsF9hFxh9pjBq9yFRlXbn83ePj8++tdHEv2ZrRx0CZ5lTMtcWY6voRcJAmGgogFk6GEoycJ3yWfaF1bGWm/67Sl2bDQ/VC2SBBEn4wYIJeC2pbFyvS81J/OteaWIAzfX+P2nDmWMGT35B9oVltyAf/b3RKfvSzzHQQfRXruk/N0stV246gFvlgEPgrLLIUcGeHHAInD256YBllQMOgbPKIkcFe3LAMWmwwk1JaJtQ3M3PjyDFcpzS62l1XiZ8FywGmpXKLWAF3assdq/cuKefWOHqA8eWCUldYU5Bbnb6sxtHS7yF0VInHAJn4E6bUwKvNrUkuuu/t5ZXf7c/6VGpPfimTDYZG6qiX+QwBf/V2YL7h/bjGff/8Bw4ITGqH27DCqsxlFdyjUfspIW37uwJyk5+/EGr/pN6w/EZTQQidHQQ9MvIF8ecWYd8QWosAd61vyO3RvxRuVmPc4m7jxRGRkYAB0qeKsQPV3ke7aUjsEhYX6xpsnwE2KGDf8LOpQ9KTrp9Wrg3HeAs7/rT23RBah8Qso9hwZ05VdLWSBDDSoM+r/CmLiv2d11+2omUde/ctQ919oUy+Yi6VkFGWic493GQq497PRQFo0WL9si5bSRobKxolYEE1SQQw06wAqww8fGN/3kEVP4jcvXEC9ePrzM5Gozdln1fIQLn0n2Nm7xW5wNCz/AWbM899DMKBK42m7CKuIfAycFwjNdX8L2EerDGKLRpOcsMYeihoFAIvbIQNvsSJ1JOTZumPLk00Uz1ispGz5du8d4E71ZD58yDFZEuQgkeQIFuoiC8qjQJaT0S3MJaNaXXadQ30mLvLt00pul2W2FViMBhDXs6BbRd/LvIp1of5qEaUQfxU0nwoY7KkAWBPxWT0Cct3eoO/B8hcW4LGJmhpBww52jiLw+HXe7/KwfYNoPsP//oh2H1O22CBqCfyifBOv75BV2JngA9yxqGipmlXt+vImQesbzEUDqZost39XjLyiHTf+rTlp5Nv3oA34LoAODLS9gQ5S6S6k23B4yP+jl8Lc23ObgcevcPyIZ9F7hMPqjbVK1FJyTw5SZsCCMpwFtO3K9+OuzXJ53+oYD/qmIEDjS4QO75ELQbZykcDpKWu7eb2ZKfPPvm+o9/PEHkWuk0TWBejI1mATwaItEJly+PfEDHPqA/dAQE/NkSY0bBTkxRYM0vqWzscOCM+CoW0Nm1qGHPYcFtB4zaLxSTgzRWxg00RMKEARNDsKgYTl2RyIv+0DX6QweMwTGsFhMankUSkbtHYOW9Uw5pv7FUGdBVTPL+4kQLaUjLvXBakKcJRqBAn5OwN35eEDp8xewZuSZtSn6D+095NlvoGj4D0FlkHwq1RsIEYTgPNDHnD+pzk65h7pViJcENUvCCDHFB4vUwOiupmiiw0Tsi/9rdYZlbiA7KsWR0MyHqFP248Nn/3k795eOUkpNfoha+Uw7qbhFC0sdSpC4SNPi6KgYCSRXmpO5LuHf+lNjJ7b5nQKUX7uFBuTFXzofkZKXC5iJRo/AGHXs6uYqq6qCfejQPN5MQTBQlR+m0Kxb2EPGeKgBVKiw5wWmT13BSVIONEQjNw2lNy+dTxOUyu/P59HB/p9pdtlvRanAAJZULs8xdCUvDZ2OFhUlsOvnuvfpt7ierP2A2sLoKfKVQaE7wkCCDADyK+b32W1hUVGkOxeFDz85zn3pYfw2OUA0zdm+YVEJCQdE6gsDvH18/ac6VPxbvMik3c1O5zfuB7T6ZN8MjsFo/qOJmppohW6/Tqycu7i5Zasgw/FakwGFBs9LXkDIPzs4pNHTpMpKXxc/1530rDMSW5jdwZvI7QoVvJPMA+Kb+MHTSWk02vAgbY76XL8AKCkqlgfxGXeojDmg0AReQzdgTIwPdSHNqUp7/nbioUjfIK5UfywCL/TtuZ7xUrAjYDgex9ubVbPCkhcDn/Mzc81pVwZKVA/x3s2HYct/0/dGBLT+ZM0Xs5PwxzFbd+DQe0nTqwrz8jJionhvHNY80hltRNhyDM+/YhEV8Axra3yhw9Rvr3ndLTWPiynrt0W5cgMDJZ4c5YWO0jo56poo+0xV2iI8rrbAhOpNXNfuTwHO76FKezEI2Hl9Cm1WEHuEdg2amgka0byrMU34OxjuvsCEBIEHDpsY/nxp1blev0gobovjy7pUJS953GaXW5HZT5uTeQv45dkL8lioUcp+qjTZDmQk3KlTDIcJgAy46obIrRwsgSig6Fr7VEIrq2SOFfl+4ExNK+/LBQpMCYMwtOFi6Pl95WfL8x93uKfZ7ax+vpgHA8DwyKBzrEj8Zv1YWPIa2ITU6+32y4kiSOQcuCJxKXZD7+Y/vu2w1tLHHb+dxS9zrdRgNEc8CXh4iYdTrsD3zu+DvGfBVqIZDSLP3fDaSMaINFBh+4Smgr9aBM3aNIassv8HfZrenhdKuvDCQsOnpsyBsjXnLy5iZtLTufnXSnY8BDK+tBpaeB5X+9GsMPpVeRlRM84+XH9mGtBiv/YhjOq1GPcHewoYQH106PnNhd2ETvU57CzmD2QmEDc1w3+0xaUt7Q5ldOmwAZstv9qWNMbr87FXIbuMkJHQYNjRwwqMvOGUlyUBfZ8bJYYQAdijxJb3uiebBwU+gyK52lDGqpGV1t2syn8/je7nQ0CryrfyJ6/Fc09PWjQHYeD1ic0x3AsfaoIfLTsjVkZMSN31xT8lqdpkd73V3j27pVJCZdZ9P6JDLpGbrD6YDPkYkK1zgUEeVcZdW6XNzYvgeBhgbIoFn1XW+w8+h2VCpks/dbcGkTN6Pd1YKSxvK52cnJP3eM65UwEvQKGlRpW+hj5d5d/+CR9Klyzybt9eZQ+vsHjCJb5kKrXumRsfsvL9hcJlxmMNtyD+8ckiaWCL9CoSe1+tHgGtlygHVO6j+KxG49A1dHxECp+VgQ3HfyyIth0mrt9zhN/LCl0Bjie1MQWDNb/haoUkCRekPpKxvV6YTHw2MtuU35se6vfi4jGxYQipuJ32ra6AtcPjqfPjD8cawolmdUwYc06noTLlHaERkZCSXx5wGZc9Y0FMaqVEW/MEHSSjGFXnZaZ2wvn3hEIJXlGJmiJZRysw/io4iKJYyI1rQST+SsOY/B06J+8W9/4YgoyKrl8KAel/wneyDZk9x04VDrQKwZ4WUO6l0Qd6PfCYEEjr3LqtGlhZdSPVWLUVSiTenPfRToyr4Y1EP/AGnrBwz1MrcFbCuytFyKFhAJJH1GtZ3gfyVCRzqN31szhB10vOThIRfiaEHInALGqJ4a9BZn8EHx9jCK1mN7h1Ak3FMWPTA1c/P/wIw0m2BY886cO7Gb2C3wUIXK8GwKnQPQz65EqfA5s2laTFRzZnJAqs1pdcWRJ3Ysp2VXe63qz7yv0aS+AUmcsYIG5o9O3u5VcML1N6vVOASLi5VkokPPtC8iL3NN+wwNMPbCkcxhEhrdlse/H1hglf/LR9gw9aCQLE/rlPUQ69BB3pyXC6Gzrv6/my4rMjf/O2fxOsyos/y9REO7vOUhLULKSk9A2dekPtVbtCYcYWwGsPnztOOrBoRycqukNuDq0YuFfKECiAhTIy63OaVChziQNy2HllC35APaVX+TWRjmU0geBC3FqBoMWBXSKVhSQETHq0OnBr/fsiPdH3vwX9Vcqrxvh+0FcEH3zgxd8ieo5SaaIHEL9ksfCjwrFZNEdCkPTpnhF/l8jT29KymqNqwJ1ofNtsm8+nhXPhWw00+twUIh8K9x6JqPKD5sqQ+8BklzN/fKe7OcV/gl8lXl1EDmJlDUGXefr7GFZF3a99PB9GaK5sbaBYdULPV2zx+4oogyxRH9Fj8kUePn3o6vdVzqdA3oC86Gos3gdChMhhGPEV+1UZAnREwE82ThLyTKvKrn+vx7vJ8KOO6GkAU9LnJ91XnvsvjhQvPaeKe3PEataobDEcSidwt7vjPoyffPPRrrJn6TPaw9Y++kjq79YFIRGkvxY4nsGQ0d3k/L3RQDifBx+Puw7AKlqmp5x2iGaWi4IYBnAZGGVP2qftQONVXqyp0gU+RwufDwWet13syQxeYHcYJrShc2bPqqHFeRV8DfVfhQ98wofkHM7LjIEq49mshcIisjAMjEt3CQgYWFqTegOPm55vz0jNdAMFDvqzipCCc3BSEzK3oFsrYCakeOFY1If38Bl5RHrMtaaxAolgolCqKND6ONe80el1HEDhkkBux7R/Ig5ddHuodXnUVYiSTcKyZUChpOP8s3Wpqa5wTiJj256g4jy4LVfApdJOlHtAEQlwHp2iaSeN35wzChaKfBATmJBCZNuVdx4QePL/5920z4Cok+9axzbcadh/Y2Dg0Cj1PmLSFvvIh1ZgDT1d2Uyctb7CAys/qRlPa51Bm+i0o48rsayRoPML2sppAkQPXHOEZtOqyB4xDn8AbSaBZLPMHzBGJCPeBP56b9LI968K/RpOVSNiM20id8ZpXTuxry6rK3GoznqWAMcpZeUBaCtBC5Bk3fTz/rJteoxkJw6TTSzwGGi30NfFOZBIXWgXm0NRT0HImCdEPL5frayVwBgpjv3M/HDtN9BZNUTMpTcETNMNkz3wMdW36hc4TEil3lgiNw+s1EcvdvfwZhhgBg51MWEi9lpxQKkMViQyTstugIUSTn8XbBvzNrEdggGT+t2rDVlK5m2eIRW3Pbl6EBV6ZV5domi1uxbSA0L2WAldMXgF83W8eeApbF9zZPwj8O3dQxK21o1J52Yy0gor5BDmnOOZqZGFhTtYTtkCjKNjYqKtnOQ2KM9QFWBw7EhYZ7EKR+BJfGyEBnx/H2aZ0cU0z+fH3LqoKcjMS2LTxwX+ZV6T5YFHr1SWwaU3H/mJSkBi+zgLHkBk9XZ6SurHX5pjJRN2c/YtqarNTV8NjSwUB1EHEJBoi0bBbxGYLPKbUecjI4/jnNo5rmy12kq3U6+iXGhAxBrbPXd08psl6cyDvn9oy2LgMCUXKs4RDQhF52TjfcK1oMtoT3hYQY9ME2gvRnmmaW3T36/gWmbDTah1oTs5QzFffkBfe6r1Aw/Wr+PWv0iDUeMKAaED8gREh6bUXOGOGZRyf/CBhjs8oiPLwebGmcfXCuzv6w/6E2SBySDD2wN9f8PdScAxt0ROlNMpgtw6Ted/8hd3FO2/9vaE3PPo/QHgPpCc8joCQmmaG9ny/exYMjEx8cOVtKNsOArpfp1R9e3bztH67Ivrl89V3qt0rDL76BzqalWhMA4Mtr8Chmkved16vV6uGwRLW31qNMlKnVZ9Ef3C062neWDQYTP0r1WvIwlKht75VGkAEiSlK9BLDX1zRiG9a9q++g3i7kyA0bU10HvQSHKypOh3dMDHCKeFVdDD4u7ylhFgOn2JiYdfrsnVpD99LWFYnklXCd4s8lcg+wz9fdtfLq0Zt5Fc00e9omC/Iztq6rK/7J3wAKiBPMvMUrYTd+iYJOYMzEuLW/as0nEkPzN2Q2Gl4BKYJHjIpk3jTGXdqmhZUzJ3/R9s8MU1hEz5ssL0gL2vPkId8ZTx5yIRgFHZg9drIMXQPaQ7jhIYyidylPeQh4azw1OfbvQNZJDE0IPs24d7Z02+cwCWuar6fb8UCWXu42NOm9Vh7PyVB5TYhhMK7BUe7ASJCKEkoiLn6oqQ4I0ZVKUiPuYccrJwEm2RcBiw98x6noAIyqjbrNZpZaWDhQnnuwXXP8pDLqvkvu9XGXroBb3k6W8uh2DiRf6Xubt2X167oLlEUPY5vdo0MaXXsJZt2TXFofvpU7RpY7SK4b9iDNGxMJqV+YfX716pVizNJ4cCxY8aQ1bc60XqqGttdhIb53NQXl/H8nOw3TuAQ/1S3/1zG9wUWJHQuzYdvsyOPrYLyHrCjpdDNf4DRysg/bYD7yWualzqg4Nyueee0yoLEfwAWXaEHLoBvmNb/ckNTdll53b81cILMPaDy1zhJcIScmaFS+n0bJrfKfzMFztlnjV4FgyjbmEDmtkBUK2QBPb68GM+CK5TW6beDL3oFaTxKS/0C9TnxYywYZm8vbox4CMtdV/kqkEKCDKraZHnfCPt8H5UPh3Feqw5f9RA5ybpx9S0s72ixFJDGv6E+OBXewJSTnpyrz3z+E58tB90lcL16SsDYG83LuetkyFzNRjDquWfMwYsAQkjnHZ74XVlpuLx72VykQdgJTR5gT0N970rNV7PL7H3/4dyjtV19Q9eZgwsnVF1a0BVnXgweUs01+xfl7+qnp/Mzf6VUqhReqoViL6FP3W3Sxv2DeMvLlsnoVf9vHsyCnfgf8b3xzFESyswfMk//WGYXzalfJlzPSnz+KzoDhJ3UEKrg6hv4+bg/spaxy+x132Hk0hqBtVoeAjvNmW8JDtlvz2+fnWbA92YKHPQucU2TW7CbfgdccoxqxpNFEKHefbY/9OrzWxUDM+z0S/uOPP+D2L/6LBwn2YM6g0Kfl/tMGXNhPXhCubSVgogHsWdGQWRGljlNJ1G4fj12V9pitKegFODNNuk1ZVP9+l2+PA7h40FsRy9qhF6CmNtn5uya1uG+AQgvQwyFb8CvIGSOKooQiavyvX1M/2i9VpP+ZHDS/b93Y4fHsNyVJeOA38d/hsCHe9cTUrIjHHADK28cKxK5afVwDsKomFmyUk8W+Kj65MfTvQJrttqL80kdNECnIr148myHT2ilCRFt8TJp1p4Ra538wzp28/AL+w1MBjl7GQvRh1ZBNIWaa4t6iRsb0/umCxzm1feXyk6Nhl4Ef5Unn/FuEAm9Km8vxMP9Ap+aPGDMIJuuvb19QsclD4Hl3ZGEUBTIiwekD+3d0GSmLU/4znusTXBLVomcsCd/iUgqG8N2SxjAIJt3VTsAAAP3SURBVG+/VkUnw7kfP0Vd3/fL0XkD0UpFidLX2xI7QuT1VzJXt94ovJ3vRUYyr9dq46KObu1wYMVnT4wRvPEChzobOienGSZ0PgmXUp4BtogfyLigsAJQS481T46uTf616++QY3EG6dnpu4ay1uO/hqjdjjB8e0F9s5/AROeNqBOebk78YeunGBaB5svlkqYepU9A1G87viEOIUQrEyCQEC1FpZMEcWDD2Iarkx/euG6FGFn/hccGhtXt+AW0q04ICCc+QTPAAODa2Ltnem2fxP2q4n9C4BAjgr7N/pAUu6BFfoWBMeZ+kcsCzXDhK8n3tan3bhQ++fsOTghhkNQTAtcgX6fqverAmNEO4vTEzGZra+IDXNblJP+ZcPOPAWUdts3RbJw/7QiNNuy0siQUqD7SRCh+BSJjCuD4iUsX/7f4pkAgjYN5PK6ntLLwep0qe4XVbAXDY1WkNRkhtmB1ImEGJzf16MzO3n/N7887UvxnBA4xOGS+rg+lzFkqcHUP4tu3iuqYJHggSPBM3CvAcCRkzMO0wHwGDnAXtdXlZWzMPzBtbNb1kp34bUJLyW6EE/bk/iIQywbBWXFArOXGSFDQbJIJnjJIBLRBthkSMj4bjQ0RHfOgUWljY26d+HLn9K5oTwWCxMFsAM9u/8be+396tDoZ0nip0MWtC3NyZTn1FAkaCCWtir889MXFDVuw6+vQYnvFJVjW+uLrnUO8w2r+hJDaIjSlJQ6dpFmYqzr37OLeoaDZHluC858TuGJmCIJmZU0lnVwj4B5UgJ0TcJVSZt1VPj7cJ23bABOj2c6YrILzb9wp6NM5Rw/AC/DWyw0/VlvZWAH6iXaJPb9xcua2Se3n2NLqvypwRbzxCQ4PGxe7kNKp3iFEEmT08866rDISuIjsIdBoalqrjgF7b03MNHKF1XYVWGH4hmcj5O7ew4USeXUY/kRI41mz8fjIQ0MvGoIhQjqFoqhzN0/+NvHYD19E89Xly/tvC1wxR/yHX6gv8Krcmdapu5Fuga3Rwj/j2jA8FGNLBHEMCRj6g8kF0o96FZakTbx5WOBb60j+hnePoY3PfMx+DfJcpxymO+amxXaRu/l0lblJ/JDQMXYaskuhn8YuFfQSoX4inxqKZ9PCnD07Je4MfMnmkFThemxBN9HNkvYJsc+RijiAew7ZKxcHt3JRPTjQUOheqb0kpGVdKEIrEd7wB+82k/LgucRhev1j9fMTF/SY6oSoUq+4xK2188rxsOhi1Pb5qdU3QtRz8GxZ0tPLQXmp0e2D6rZvIXfxqgXCFghCpmCEDkkGDSHhBBaXFvfwVtrTa5G+Ndpcyoi+mGMujN4+1DmgODhgRw78H2l4juMaZEBMAAAAAElFTkSuQmCC;fontColor=#000000;fontFamily=Fira Sans Light;fontSource=https%3A%2F%2Ffonts.googleapis.com%2Fcss%3Ffamily%3DFira%2BSans%2BLight;fontSize=14;" parent="1" vertex="1">
                    <mxGeometry x="120" y="210" width="60" height="60" as="geometry"/>
                </mxCell>
                <mxCell id="7" style="edgeStyle=none;html=1;labelBackgroundColor=none;fontFamily=Fira Sans Light;fontSource=https%3A%2F%2Ffonts.googleapis.com%2Fcss%3Ffamily%3DFira%2BSans%2BLight;fontSize=14;fontColor=#000000;strokeColor=#000000;strokeWidth=2;" parent="1" source="6" target="4" edge="1">
                    <mxGeometry relative="1" as="geometry"/>
                </mxCell>
                <mxCell id="6" value="GitHub" style="dashed=0;outlineConnect=0;html=1;align=center;labelPosition=center;verticalLabelPosition=bottom;verticalAlign=top;shape=mxgraph.weblogos.github;labelBackgroundColor=none;fontFamily=Fira Sans Light;fontSource=https%3A%2F%2Ffonts.googleapis.com%2Fcss%3Ffamily%3DFira%2BSans%2BLight;fontSize=14;fontColor=#000000;" parent="1" vertex="1">
                    <mxGeometry x="120" y="360" width="60" height="60" as="geometry"/>
                </mxCell>
                <mxCell id="10" style="edgeStyle=none;html=1;labelBackgroundColor=none;fontFamily=Fira Sans Light;fontSource=https%3A%2F%2Ffonts.googleapis.com%2Fcss%3Ffamily%3DFira%2BSans%2BLight;fontSize=14;fontColor=#000000;strokeColor=#000000;strokeWidth=2;" parent="1" source="9" target="6" edge="1">
                    <mxGeometry relative="1" as="geometry"/>
                </mxCell>
                <mxCell id="9" value="Developers" style="html=1;verticalLabelPosition=bottom;align=center;labelBackgroundColor=none;verticalAlign=top;strokeWidth=2;strokeColor=#0080F0;shadow=0;dashed=0;shape=mxgraph.ios7.icons.user;fontFamily=Fira Sans Light;fontSource=https%3A%2F%2Ffonts.googleapis.com%2Fcss%3Ffamily%3DFira%2BSans%2BLight;fontSize=14;fontColor=#000000;" parent="1" vertex="1">
                    <mxGeometry x="120" y="510" width="60" height="60" as="geometry"/>
                </mxCell>
                <mxCell id="12" style="edgeStyle=none;html=1;labelBackgroundColor=none;fontFamily=Fira Sans Light;fontSource=https%3A%2F%2Ffonts.googleapis.com%2Fcss%3Ffamily%3DFira%2BSans%2BLight;fontSize=14;fontColor=#000000;strokeColor=#000000;strokeWidth=2;" parent="1" source="11" target="3" edge="1">
                    <mxGeometry relative="1" as="geometry"/>
                </mxCell>
                <mxCell id="11" value="Developers/QAs/Testers" style="html=1;verticalLabelPosition=bottom;align=center;labelBackgroundColor=none;verticalAlign=top;strokeWidth=2;strokeColor=#0080F0;shadow=0;dashed=0;shape=mxgraph.ios7.icons.user;fontFamily=Fira Sans Light;fontSource=https%3A%2F%2Ffonts.googleapis.com%2Fcss%3Ffamily%3DFira%2BSans%2BLight;fontSize=14;fontColor=#000000;" parent="1" vertex="1">
                    <mxGeometry x="550" y="210" width="60" height="60" as="geometry"/>
                </mxCell>
                <mxCell id="14" value="Commit" style="text;html=1;strokeColor=none;fillColor=none;align=center;verticalAlign=middle;whiteSpace=wrap;rounded=0;labelBackgroundColor=none;fontFamily=Fira Sans Light;fontSource=https%3A%2F%2Ffonts.googleapis.com%2Fcss%3Ffamily%3DFira%2BSans%2BLight;fontSize=14;fontColor=#000000;" parent="1" vertex="1">
                    <mxGeometry x="160" y="460" width="60" height="30" as="geometry"/>
                </mxCell>
                <mxCell id="15" value="Trigger" style="text;html=1;strokeColor=none;fillColor=none;align=center;verticalAlign=middle;whiteSpace=wrap;rounded=0;labelBackgroundColor=none;fontFamily=Fira Sans Light;fontSource=https%3A%2F%2Ffonts.googleapis.com%2Fcss%3Ffamily%3DFira%2BSans%2BLight;fontSize=14;fontColor=#000000;" parent="1" vertex="1">
                    <mxGeometry x="160" y="310" width="60" height="30" as="geometry"/>
                </mxCell>
                <mxCell id="16" value="Report" style="text;html=1;strokeColor=none;fillColor=none;align=center;verticalAlign=middle;whiteSpace=wrap;rounded=0;labelBackgroundColor=none;fontFamily=Fira Sans Light;fontSource=https%3A%2F%2Ffonts.googleapis.com%2Fcss%3Ffamily%3DFira%2BSans%2BLight;fontSize=14;fontColor=#000000;" parent="1" vertex="1">
                    <mxGeometry x="190" y="200" width="60" height="30" as="geometry"/>
                </mxCell>
                <mxCell id="17" value="Access" style="text;html=1;strokeColor=none;fillColor=none;align=center;verticalAlign=middle;whiteSpace=wrap;rounded=0;labelBackgroundColor=none;fontFamily=Fira Sans Light;fontSource=https%3A%2F%2Ffonts.googleapis.com%2Fcss%3Ffamily%3DFira%2BSans%2BLight;fontSize=14;fontColor=#000000;" parent="1" vertex="1">
                    <mxGeometry x="460" y="200" width="60" height="30" as="geometry"/>
                </mxCell>
                <mxCell id="18" value="Auth" style="text;html=1;strokeColor=none;fillColor=none;align=center;verticalAlign=middle;whiteSpace=wrap;rounded=0;labelBackgroundColor=none;fontFamily=Fira Sans Light;fontSource=https%3A%2F%2Ffonts.googleapis.com%2Fcss%3Ffamily%3DFira%2BSans%2BLight;fontSize=14;fontColor=#000000;" parent="1" vertex="1">
                    <mxGeometry x="280" y="150" width="60" height="30" as="geometry"/>
                </mxCell>
            </root>
        </mxGraphModel>
    </diagram>
</mxfile>